<?xml version="1.0" encoding="UTF-8" standalone="no"?> <svg id="Layer_1" data-name="Layer 1" xmlns="http://www.w3.org/2000/svg" viewBox="0 0 128 128"><defs><style>.cls-1{fill:#2d3e50;}.cls-2{fill:#1d75b8;}</style></defs><title>n</title><path class="cls-1" d="M69.236,93.89032c-7.02268-3.503-22.43386-8.67607-22.43386-8.67607V80.12654l.42951-.32323a14.72051,14.72051,0,0,0,5.58823-9.358l.08757-.54014h.41909a5.68552,5.68552,0,0,0,5.2628-3.54255,6.17282,6.17282,0,0,0,.77366-2.99837,5.69415,5.69415,0,0,0-.40462-2.1102,2.9491,2.9491,0,0,0-1.14055-1.83492L56.39581,58.556l.35447-1.543C59.31709,45.81591,50.643,35.73224,38.99762,35.45277c-.28357-.004-.56509-.00828-.84236-.002-.27948-.00624-.55885-.002-.84241.002C25.6654,35.73224,16.99122,45.81591,19.56008,57.013l.35457,1.543-1.42207.86322a2.952,2.952,0,0,0-1.1427,1.83492,5.73759,5.73759,0,0,0-.40447,2.1102,6.19638,6.19638,0,0,0,.7735,2.99837,5.69077,5.69077,0,0,0,5.265,3.54255H23.403l.08552.54014a14.71484,14.71484,0,0,0,5.59013,9.358l.42951.32323v5.08771S14.09709,90.38734,7.07447,93.89032a7.488,7.488,0,0,0-4.03893,5.438c-1.203,7.02262-1.41583,18.87031-1.41583,18.87031H74.69065S74.478,106.351,73.27492,99.32836A7.49344,7.49344,0,0,0,69.236,93.89032Z"/><path class="cls-2" d="M91.22925,75.60826a5.70122,5.70122,0,0,1-3.19948.6365,13.98073,13.98073,0,0,1-3.91976-.536,20.35592,20.35592,0,0,1-3.19948-1.18937L79.269,78.925a27.442,27.442,0,0,0,2.57969,1.04695,17.55163,17.55163,0,0,0,4.53955.86271v4.55632h4.82434v-4.6652a10.22584,10.22584,0,0,0,3.15756-.9967,6.9471,6.9471,0,0,0,2.08556-1.65A5.94875,5.94875,0,0,0,97.6031,75.9935a7.81237,7.81237,0,0,0,.34338-2.26975,6.5723,6.5723,0,0,0-2.23627-5.151,11.59171,11.59171,0,0,0-2.48757-1.65835,29.1843,29.1843,0,0,0-3.12407-1.34851c-.73706-.25126-1.37361-.49413-1.89289-.7119a7.765,7.765,0,0,1-1.32336-.67,2.23016,2.23016,0,0,1-.77892-.77892,2.09365,2.09365,0,0,1-.25126-1.05533,1.93149,1.93149,0,0,1,.80407-1.6081,4.40282,4.40282,0,0,1,2.63828-.61145,15.30887,15.30887,0,0,1,3.501.3853,17.8664,17.8664,0,0,1,2.93145.91291l1.18937-4.5898a15.2186,15.2186,0,0,0-2.27818-.76216,20.87175,20.87175,0,0,0-3.42558-.57792v-3.9784H86.38819v4.12915a9.79487,9.79487,0,0,0-2.90635.97993,6.29316,6.29316,0,0,0-3.12407,3.75224,8.08324,8.08324,0,0,0-.36014,2.42894,5.86474,5.86474,0,0,0,2.16091,4.78247,9.92984,9.92984,0,0,0,2.17763,1.35684c.80407.37691,1.63325.7119,2.47081,1.01341.871.30989,1.63325.59468,2.2949.86271a9.41133,9.41133,0,0,1,1.65.82917,3.352,3.352,0,0,1,.9967.92968,2.24633,2.24633,0,0,1,.34343,1.248A2.06408,2.06408,0,0,1,91.22925,75.60826Z"/><path class="cls-2" d="M111.41443,37.8679l-7.01036-5.31852,4.439-18.75293a3.24348,3.24348,0,0,0-3.15761-3.99512H71.52992a3.24348,3.24348,0,0,0-3.15761,3.99512l4.439,18.76132L65.801,37.8679a37.76763,37.76763,0,0,0-4.94994,4.49768,22.924,22.924,0,0,1,2.37025,7.35373,30.90393,30.90393,0,0,1,6.49946-6.6837l5.77917-4.38046a3.269,3.269,0,0,0,1.39871.32666h6.62511a3.24554,3.24554,0,0,0,0-6.49107H79.46157l-3.836-16.19834h25.96429l-3.836,16.19834H94.83912a3.24554,3.24554,0,1,0,0,6.49107h5.47766a3.269,3.269,0,0,0,1.39871-.32666l5.77917,4.38046a31.4213,31.4213,0,0,1,12.3707,26.30767A30.053,30.053,0,0,1,105.853,93.80838a31.617,31.617,0,0,1-16.26536,4.91646q-.98.02515-1.95991,0a32.49846,32.49846,0,0,1-8.32533-1.30659c.05864.27641.11727.56115.16752.84594.31828,1.82587.56115,3.92815.76216,6.06391a39.02546,39.02546,0,0,0,7.21141.87943c.38524.00838.77892.01677,1.16417.01677s.779-.00838,1.15583-.01677a38.45593,38.45593,0,0,0,19.56539-5.92992A36.44652,36.44652,0,0,0,126.348,69.60293,37.8837,37.8837,0,0,0,111.41443,37.8679Z"/></svg>