<?xml version="1.0" encoding="UTF-8" standalone="no"?>
<svg
   xmlns:dc="http://purl.org/dc/elements/1.1/"
   xmlns:cc="http://creativecommons.org/ns#"
   xmlns:rdf="http://www.w3.org/1999/02/22-rdf-syntax-ns#"
   xmlns:svg="http://www.w3.org/2000/svg"
   xmlns="http://www.w3.org/2000/svg"
   xmlns:sodipodi="http://sodipodi.sourceforge.net/DTD/sodipodi-0.dtd"
   xmlns:inkscape="http://www.inkscape.org/namespaces/inkscape"
   version="1.1"
   id="svg2"
   xml:space="preserve"
   width="4000"
   height="2666.6667"
   viewBox="0 0 4000 2666.6667"
   sodipodi:docname="Mar-Business_6.eps"><metadata
     id="metadata8"><rdf:RDF><cc:Work
         rdf:about=""><dc:format>image/svg+xml</dc:format><dc:type
           rdf:resource="http://purl.org/dc/dcmitype/StillImage" /></cc:Work></rdf:RDF></metadata><defs
     id="defs6" /><sodipodi:namedview
     pagecolor="#ffffff"
     bordercolor="#666666"
     borderopacity="1"
     objecttolerance="10"
     gridtolerance="10"
     guidetolerance="10"
     inkscape:pageopacity="0"
     inkscape:pageshadow="2"
     inkscape:window-width="640"
     inkscape:window-height="480"
     id="namedview4" /><g
     id="g10"
     inkscape:groupmode="layer"
     inkscape:label="ink_ext_XXXXXX"
     transform="matrix(1.3333333,0,0,-1.3333333,0,2666.6667)"><g
       id="g12"
       transform="scale(0.1)"><path
         d="M 0,0 H 30000 V 20000 H 0 Z"
         style="fill:#ffffff;fill-opacity:1;fill-rule:nonzero;stroke:none"
         id="path14" /><path
         d="m 26347.2,8708.1 c -1733.1,1688.1 -4719.5,1595.7 -6770.7,444.1 C 16899.9,7649.6 13650.3,8005.3 10805.8,9167.4 8816.96,9979.9 6501.66,10200.9 4714.65,7964.7 3406.36,6327.6 2702.13,4136.6 3528.7,2239 c 48.02,-110.2 104.93,-216.6 168.62,-319.8 H 26909.5 c 1133.4,2331 1087.5,5181.9 -562.3,6788.9"
         style="fill:#f6f5f5;fill-opacity:1;fill-rule:nonzero;stroke:none"
         id="path16" /><path
         d="m 3503.58,2229.2 c -539.71,1373.8 -758.57,2621 -650.49,3706.9 95.42,958.7 440.65,1774 1026.12,2423.4 558.73,619.7 1319.4,1061.8 2199.78,1278.4 810.12,199.3 1677.21,192.2 2441.51,-20.1 1152.71,-320.2 1919.7,-1048.7 2104.2,-1998.8 l -53,-10.3 C 10391.2,8538 9638.32,9251.3 8506.05,9565.8 7750.54,9775.6 6893.16,9782.6 6091.89,9585.5 5222.04,9371.4 4470.77,8935 3919.3,8323.3 3341.7,7682.7 3001.06,6877.7 2906.8,5930.7 2799.58,4853.4 3017.26,3614.7 3553.82,2248.9 l -50.24,-19.7"
         style="fill:#dadada;fill-opacity:1;fill-rule:nonzero;stroke:none"
         id="path18" /><path
         d="m 27448.1,2672.1 -53.7,5.6 c 84,794.7 53.6,1563.4 -90.4,2284.9 -135.8,680.6 -372.8,1321.3 -704.3,1904.3 -625.3,1099.4 -1569,1970 -2729.2,2517.6 -567.7,267.9 -1171.1,450 -1793.3,541.2 -629.2,92.2 -1264,89.3 -1886.9,-8.6 -1326,-208.5 -2539.5,-840.4 -3509.3,-1827.4 l -38.5,37.9 c 978,995.3 2201.9,1632.5 3539.5,1842.8 628.1,98.8 1268.4,101.7 1903.1,8.7 627.4,-92 1235.9,-275.6 1808.4,-545.8 1170.3,-552.4 2122.3,-1430.6 2753.1,-2539.7 334.4,-588 573.4,-1234.2 710.4,-1920.4 145,-726.9 175.7,-1501.1 91.1,-2301.1"
         style="fill:#dadada;fill-opacity:1;fill-rule:nonzero;stroke:none"
         id="path20" /><path
         d="m 18667.8,14203.4 h -371 v 371 h -157.6 v -371 h -371 v -157.6 h 371 v -371 h 157.6 v 371 h 371 v 157.6"
         style="fill:#86a7ff;fill-opacity:1;fill-rule:nonzero;stroke:none"
         id="path22" /><path
         d="M 14128.1,13503.2 H 13822 v 306.1 h -130.1 v -306.1 h -306.1 v -130 h 306.1 v -306.1 h 130.1 v 306.1 h 306.1 v 130"
         style="fill:#86a7ff;fill-opacity:1;fill-rule:nonzero;stroke:none"
         id="path24" /><path
         d="m 15328.5,16773.4 h -267.1 v 267.2 h -113.5 v -267.2 h -267.1 V 16660 h 267.1 v -267.2 h 113.5 v 267.2 h 267.1 v 113.4"
         style="fill:#86a7ff;fill-opacity:1;fill-rule:nonzero;stroke:none"
         id="path26" /><path
         d="m 17198.7,12757.5 c 0,-611.3 -495.5,-1106.8 -1106.8,-1106.8 -611.3,0 -1106.8,495.5 -1106.8,1106.8 0,611.3 495.5,1106.8 1106.8,1106.8 611.3,0 1106.8,-495.5 1106.8,-1106.8"
         style="fill:#86a7ff;fill-opacity:1;fill-rule:nonzero;stroke:none"
         id="path28" /><path
         d="m 16218.1,12208.3 v -169.8 h -215.7 v 162.1 c -153,9.2 -301.3,50.6 -393.1,107.1 l 116.2,263.1 c 101,-59.6 235.5,-97.9 353.4,-97.9 102.5,0 139.2,21.5 139.2,58.2 0,134.6 -592,26 -592,425.2 0,172.9 125.4,318.2 376.3,353.4 v 166.7 h 215.7 v -163.6 c 113.1,-10.7 223.4,-39.8 310.6,-88.8 l -108.7,-261.6 c -105.6,53.6 -205,79.6 -298.3,79.6 -105.6,0 -139.2,-30.6 -139.2,-67.3 0,-128.5 592,-21.4 592,-416.1 0,-165.2 -119.3,-309 -356.4,-350.3"
         style="fill:#ffffff;fill-opacity:1;fill-rule:nonzero;stroke:none"
         id="path30" /><path
         d="m 14840.6,15027.7 c 0,-316.4 -256.5,-572.9 -572.9,-572.9 -316.4,0 -572.9,256.5 -572.9,572.9 0,316.4 256.5,572.9 572.9,572.9 316.4,0 572.9,-256.5 572.9,-572.9"
         style="fill:#86a7ff;fill-opacity:1;fill-rule:nonzero;stroke:none"
         id="path32" /><path
         d="m 14333.1,14743.4 v -87.9 h -111.7 v 83.9 c -79.2,4.8 -156,26.2 -203.5,55.4 l 60.2,136.2 c 52.3,-30.8 121.9,-50.6 182.9,-50.6 53.1,0 72.1,11 72.1,30.1 0,69.6 -306.5,13.4 -306.5,220.1 0,89.5 65,164.7 194.8,182.9 v 86.3 h 111.7 v -84.7 c 58.5,-5.6 115.6,-20.6 160.7,-46 l -56.2,-135.4 c -54.7,27.8 -106.1,41.2 -154.4,41.2 -54.7,0 -72.1,-15.8 -72.1,-34.8 0,-66.5 306.4,-11.1 306.4,-215.4 0,-85.5 -61.7,-159.9 -184.4,-181.3"
         style="fill:#ffffff;fill-opacity:1;fill-rule:nonzero;stroke:none"
         id="path34" /><path
         d="m 17351.3,15343.6 c 0,-390.8 -316.8,-707.7 -707.6,-707.7 -390.8,0 -707.6,316.9 -707.6,707.7 0,390.8 316.8,707.6 707.6,707.6 390.8,0 707.6,-316.8 707.6,-707.6"
         style="fill:#86a7ff;fill-opacity:1;fill-rule:nonzero;stroke:none"
         id="path36" /><path
         d="m 16724.4,14992.5 v -108.6 h -137.9 v 103.7 c -97.8,5.8 -192.6,32.3 -251.3,68.4 l 74.3,168.2 c 64.5,-38.1 150.5,-62.6 225.9,-62.6 65.5,0 89,13.7 89,37.2 0,86.1 -378.5,16.6 -378.5,271.9 0,110.5 80.2,203.4 240.6,225.9 v 106.6 h 137.9 v -104.6 c 72.3,-6.9 142.8,-25.5 198.5,-56.8 l -69.4,-167.2 c -67.5,34.2 -131.1,50.8 -190.7,50.8 -67.6,0 -89,-19.5 -89,-43 0,-82.1 378.4,-13.6 378.4,-266 0,-105.6 -76.2,-197.5 -227.8,-223.9"
         style="fill:#ffffff;fill-opacity:1;fill-rule:nonzero;stroke:none"
         id="path38" /><path
         d="m 3072.16,2001.9 c -86.62,-102.6 -1325.67,3094.2 -773.09,3176.9 548.02,82 966.89,-2947.5 773.09,-3176.9"
         style="fill:#86a7ff;fill-opacity:1;fill-rule:nonzero;stroke:none"
         id="path40" /><path
         d="m 3123.9,2034.2 c 0,0 -998.29,2503.8 -1408.81,1988.4 C 1380.12,3602.1 2740.6,2021.5 3123.9,2034.2"
         style="fill:#3a6bea;fill-opacity:1;fill-rule:nonzero;stroke:none"
         id="path42" /><path
         d="m 3060.28,2023.4 c 0,0 -122.25,2413.7 210.16,2417.1 682.27,7 109.18,-2308.4 -210.16,-2417.1"
         style="fill:#3a6bea;fill-opacity:1;fill-rule:nonzero;stroke:none"
         id="path44" /><path
         d="m 3305.13,2079.5 c 0,0 -298.31,21.6 -398.88,114.8 -255.81,237.2 -826.28,654.2 -959.88,407.6 -186.12,-343.7 341.13,-989 1358.76,-522.4"
         style="fill:#1f3c88;fill-opacity:1;fill-rule:nonzero;stroke:none"
         id="path46" /><path
         d="m 2819.45,1940.2 c 0,0 235.97,106.7 275.88,191.4 145.5,308.9 526.07,877.5 776.44,804.6 397.65,-115.9 92.51,-1149.2 -1052.32,-996"
         style="fill:#1f3c88;fill-opacity:1;fill-rule:nonzero;stroke:none"
         id="path48" /><path
         d="m 27376.4,1971.4 c 105.5,-81.6 766.9,2883.4 183,2898.5 -579.1,15.1 -419.1,-2716.1 -183,-2898.5"
         style="fill:#86a7ff;fill-opacity:1;fill-rule:nonzero;stroke:none"
         id="path50" /><path
         d="m 27367.7,1926.7 c 0,0 471.1,2395.3 975.8,1983 411.8,-336.5 -577.7,-1954.2 -975.8,-1983"
         style="fill:#3a6bea;fill-opacity:1;fill-rule:nonzero;stroke:none"
         id="path52" /><path
         d="m 27402.5,1919.2 c 0,0 -387.5,2228.7 -731.5,2196.9 -706.1,-65.3 209.4,-2211.8 731.5,-2196.9"
         style="fill:#1f3c88;fill-opacity:1;fill-rule:nonzero;stroke:none"
         id="path54" /><path
         d="M 5818.44,7074.1 V 1919.2 H 6872.08 V 7074.1 H 5818.44"
         style="fill:#86a7ff;fill-opacity:1;fill-rule:nonzero;stroke:none"
         id="path56" /><path
         d="M 6872.08,1919.2 H 10511.5 V 7074.1 H 6872.08 Z"
         style="fill:#d3dfff;fill-opacity:1;fill-rule:nonzero;stroke:none"
         id="path58" /><path
         d="m 6896.15,1919.2 h -48.14 v 5154.9 h 48.14 V 1919.2"
         style="fill:#3a6bea;fill-opacity:1;fill-rule:nonzero;stroke:none"
         id="path60" /><path
         d="M 13184,10979.3 V 1935.8 h 1053.6 v 9043.5 H 13184"
         style="fill:#86a7ff;fill-opacity:1;fill-rule:nonzero;stroke:none"
         id="path62" /><path
         d="M 17877.2,10979.5 V 1935.9 h -3639.4 v 9043.6 h 3639.4"
         style="fill:#d3dfff;fill-opacity:1;fill-rule:nonzero;stroke:none"
         id="path64" /><path
         d="m 14261.7,1935.8 h -48.1 v 9043.5 h 48.1 V 1935.8"
         style="fill:#3a6bea;fill-opacity:1;fill-rule:nonzero;stroke:none"
         id="path66" /><path
         d="M 20117.7,5181.5 V 1908.8 h 1053.7 v 3272.7 h -1053.7"
         style="fill:#86a7ff;fill-opacity:1;fill-rule:nonzero;stroke:none"
         id="path68" /><path
         d="M 24810.8,5181.5 H 21171.4 V 1908.8 h 3639.4 v 3272.7"
         style="fill:#d3dfff;fill-opacity:1;fill-rule:nonzero;stroke:none"
         id="path70" /><path
         d="m 21097.8,3076.3 161.6,-1157.1 h -1437.8 l 663.6,544.5 -8.5,578.6 621.1,34"
         style="fill:#102048;fill-opacity:1;fill-rule:nonzero;stroke:none"
         id="path72" /><path
         d="m 20130.1,6350.7 c 0,0 -1527.7,0 235,-3613.5 h 675.7 l -910.7,3613.5"
         style="fill:#1f3c88;fill-opacity:1;fill-rule:nonzero;stroke:none"
         id="path74" /><path
         d="M 21590.4,3076.3 21752,1919.2 h -1437.8 l 663.6,544.5 -8.5,578.6 621.1,34"
         style="fill:#1f3c88;fill-opacity:1;fill-rule:nonzero;stroke:none"
         id="path76" /><path
         d="m 23371.5,6644.4 c 0,0 759.6,-2047.1 -2080.3,-1459.5 l 512.8,-2456 -1052.6,9 c 0,0 -1688.7,2956.7 -621.3,3612.8 l 3241.4,293.7"
         style="fill:#3a6bea;fill-opacity:1;fill-rule:nonzero;stroke:none"
         id="path78" /><path
         d="m 20920.5,3042.7 c -213.3,0 -351.3,3.2 -354,3.3 -11.2,0.3 -20,9.6 -19.8,20.7 0.3,11.2 9.8,19.8 20.8,19.8 5.5,-0.2 559.7,-13.2 1172.6,13.5 11.3,0.6 20.6,-8.2 21.1,-19.4 0.5,-11.2 -8.2,-20.6 -19.3,-21.1 -309.7,-13.4 -604.5,-16.8 -821.4,-16.8"
         style="fill:#ffffff;fill-opacity:1;fill-rule:nonzero;stroke:none"
         id="path80" /><path
         d="m 21124.7,3379.2 c -320.2,0 -655.5,16.5 -680.2,17.7 -11.2,0.5 -19.8,10.1 -19.2,21.2 0.6,11.2 10.2,19.9 21.2,19.2 2.7,-0.1 273,-13.5 559.4,-16.8 475.5,-5.6 627.9,19.6 672.1,41.7 9.9,5 22.1,0.9 27.1,-9.1 5,-10 1,-22.1 -9,-27.1 -72.9,-36.4 -317.4,-46.8 -571.4,-46.8"
         style="fill:#ffffff;fill-opacity:1;fill-rule:nonzero;stroke:none"
         id="path82" /><path
         d="m 21210.2,2231.8 c -4.8,0 -9.7,1.8 -13.6,5.3 l -232.4,211.7 c -8.3,7.5 -8.9,20.3 -1.4,28.6 7.6,8.2 20.4,8.8 28.6,1.3 l 232.4,-211.7 c 8.3,-7.5 8.9,-20.3 1.4,-28.6 -4,-4.3 -9.5,-6.6 -15,-6.6"
         style="fill:#ffffff;fill-opacity:1;fill-rule:nonzero;stroke:none"
         id="path84" /><path
         d="m 21941.7,9024.1 c 0,0 -1254.7,223.3 -1491.7,-2536.3 l 3048.8,146.9 c 0,0 470,1889.9 -998.9,2369.8 l -558.2,19.6"
         style="fill:#fbc343;fill-opacity:1;fill-rule:nonzero;stroke:none"
         id="path86" /><path
         d="m 21521.1,6208.6 h -1419.9 v 228.5 h 1419.9 v -228.5"
         style="fill:#e5ecff;fill-opacity:1;fill-rule:nonzero;stroke:none"
         id="path88" /><path
         d="m 21628.4,6791.3 c 0,0 -714.9,132.2 -959.7,7.4 -213.2,-108.7 -164.1,-217.9 -83.3,-198.3 l -6,-28.8 c -12,-56.8 31.8,-110 89.9,-109.2 43,0.6 85.7,-4.7 127.3,-15.7 199.5,-52.8 821.4,-211.2 968.9,-174.4 l 110.1,156.7 -247.2,362.3"
         style="fill:#e28b6d;fill-opacity:1;fill-rule:nonzero;stroke:none"
         id="path90" /><path
         d="m 21765.5,6272.3 c 0,0 1351.3,-362.3 1733.3,362.4 l -636.6,450.4 c 0,0 -460.2,-323.1 -1233.8,-293.8 l 137.1,-519"
         style="fill:#fbc343;fill-opacity:1;fill-rule:nonzero;stroke:none"
         id="path92" /><path
         d="m 20968.3,6208.6 h -1639.6 l -484.8,1623.1 h 1639.7 l 484.7,-1623.1"
         style="fill:#102048;fill-opacity:1;fill-rule:nonzero;stroke:none"
         id="path94" /><path
         d="m 21628.3,6764.3 c -13.1,0 -24.6,9.7 -26.6,23.1 -2.2,14.7 7.9,28.4 22.7,30.6 11.7,1.8 1174.8,175.6 1448,272.5 14,5 29.5,-2.3 34.5,-16.4 5,-14 -2.4,-29.5 -16.4,-34.4 -278.2,-98.7 -1410.1,-267.9 -1458.2,-275.1 -1.3,-0.2 -2.7,-0.3 -4,-0.3"
         style="fill:#e49b31;fill-opacity:1;fill-rule:nonzero;stroke:none"
         id="path96" /><path
         d="m 21066.2,6844.7 c -13.9,0 -25.7,10.7 -26.8,24.8 -0.3,2.8 -23,287.1 -17.7,651 5,336.5 35.7,812.4 153.9,1167.9 4.7,14.2 20,21.9 34.1,17.1 14.2,-4.7 21.8,-19.9 17.1,-34.1 -222.4,-669 -134.6,-1786.3 -133.6,-1797.5 1.2,-14.9 -9.9,-27.9 -24.7,-29.1 l -2.3,-0.1"
         style="fill:#e49b31;fill-opacity:1;fill-rule:nonzero;stroke:none"
         id="path98" /><path
         d="m 21958.9,8556.5 c -97.5,0 -167.1,30.8 -168.4,31.4 -13.6,6.2 -19.5,22.2 -13.3,35.8 6.1,13.5 22.2,19.5 35.7,13.3 9.4,-4.2 223,-97.4 415.7,82.9 10.9,10.1 27.9,9.6 38.1,-1.3 10.2,-10.9 9.6,-28 -1.2,-38.1 -105,-98.2 -217.5,-124 -306.6,-124"
         style="fill:#e49b31;fill-opacity:1;fill-rule:nonzero;stroke:none"
         id="path100" /><path
         d="m 22802.6,6975.1 c -1.2,0 -2.4,0.1 -3.5,0.3 -14.8,1.9 -25.2,15.4 -23.3,30.2 78.8,604.5 -236.6,1192.2 -239.8,1198.1 -7.2,13.1 -2.4,29.5 10.7,36.6 13.1,7.2 29.5,2.3 36.6,-10.8 3.3,-6 327.2,-608.6 246,-1230.9 -1.8,-13.6 -13.4,-23.5 -26.7,-23.5"
         style="fill:#e49b31;fill-opacity:1;fill-rule:nonzero;stroke:none"
         id="path102" /><path
         d="m 22249.7,9069.2 c 0,-106.1 -69.5,-203.5 -175.6,-235.3 -132,-39.3 -269.3,36.6 -307,167.5 -1.6,4.3 -2.7,8.6 -3.7,13.5 l -69,302.1 -3.7,16.7 282.7,279.5 182,-91.1 88.3,-399 c 3.8,-17.8 6,-36.1 6,-53.9"
         style="fill:#e28b6d;fill-opacity:1;fill-rule:nonzero;stroke:none"
         id="path104" /><path
         d="m 21940,9317 c 0,0 -20.5,-137.4 -172.9,-315.6 -1.6,4.3 -2.7,8.6 -3.7,13.5 l -69,302.1 h 245.6"
         style="fill:#102048;fill-opacity:1;fill-rule:nonzero;stroke:none"
         id="path106" /><path
         d="m 21236.4,10010.3 c 0,0 -47.1,-1218.4 703.5,-693.3 l 178.3,329.8 -275.9,451 -605.9,-87.5"
         style="fill:#e28b6d;fill-opacity:1;fill-rule:nonzero;stroke:none"
         id="path108" /><path
         d="m 21248.4,9977.6 c 0,0 73.1,-137.1 544.3,-96.7 0,0 47.3,-487.6 339,-581.9 l 224.4,44.9 c 103.2,1023.2 -309.7,1283.5 -812.3,1068.1 -552,215.4 -780.9,-374.4 -297.6,-641.3 -1.5,77.1 -5.4,130 2.2,206.9"
         style="fill:#102048;fill-opacity:1;fill-rule:nonzero;stroke:none"
         id="path110" /><path
         d="m 22131.7,9299 c 0,0 -130.1,-924.5 219.9,-861.6 350.1,62.8 426.4,574.4 4.5,906.5 l -224.4,-44.9"
         style="fill:#102048;fill-opacity:1;fill-rule:nonzero;stroke:none"
         id="path112" /><path
         d="m 22426.6,9365.3 c 8.1,-28.2 -69.6,-75.5 -173.6,-105.4 -104,-30 -194.9,-31.4 -203,-3.1 -8.2,28.3 69.5,75.5 173.5,105.5 104,29.9 194.9,31.3 203.1,3"
         style="fill:#fbc343;fill-opacity:1;fill-rule:nonzero;stroke:none"
         id="path114" /><path
         d="m 21304.2,9685.7 c 0,-16.4 13.3,-29.7 29.7,-29.7 16.4,0 29.7,13.3 29.7,29.7 0,16.4 -13.3,29.7 -29.7,29.7 -16.4,0 -29.7,-13.3 -29.7,-29.7"
         style="fill:#102048;fill-opacity:1;fill-rule:nonzero;stroke:none"
         id="path116" /><path
         d="m 21486.5,9718.1 c 0,-18.7 15.2,-34 34,-34 18.8,0 34.1,15.3 34.1,34 0,18.8 -15.3,34.1 -34.1,34.1 -18.8,0 -34,-15.3 -34,-34.1"
         style="fill:#102048;fill-opacity:1;fill-rule:nonzero;stroke:none"
         id="path118" /><path
         d="m 21409.1,9503.9 c -6.5,0 -12.4,0.6 -16.6,1.3 -16.2,2.3 -29.3,9.9 -37.1,21.3 -6.7,9.9 -8.9,21.5 -6.4,33.4 7.4,34.4 52.9,63.7 61.9,69.2 6.4,3.9 14.7,1.9 18.6,-4.4 3.9,-6.4 1.9,-14.7 -4.5,-18.6 -21.3,-13 -45.9,-34.8 -49.6,-51.9 -1,-4.8 -0.3,-8.6 2.3,-12.5 3.4,-5 10.2,-8.6 18.7,-9.8 12.4,-1.9 23.8,-1.1 31.1,2.1 6.9,2.9 14.8,-0.2 17.8,-7.1 2.9,-6.8 -0.2,-14.8 -7.1,-17.7 -9.4,-4.1 -19.9,-5.3 -29.1,-5.3"
         style="fill:#102048;fill-opacity:1;fill-rule:nonzero;stroke:none"
         id="path120" /><path
         d="m 21449.4,9390.4 c -14,0 -28.9,2.3 -44.7,7.8 -7,2.4 -10.7,10.1 -8.2,17.2 2.4,7 10.1,10.7 17.1,8.3 76.4,-26.7 130,39.2 132.2,42 4.6,5.8 13.1,6.8 19,2.1 5.8,-4.6 6.8,-13 2.2,-18.9 -0.6,-0.7 -47.2,-58.5 -117.6,-58.5"
         style="fill:#102048;fill-opacity:1;fill-rule:nonzero;stroke:none"
         id="path122" /><path
         d="m 21464.2,9797.6 c 17.8,-23.1 37.5,-12.1 92.2,-10.2 12.5,0.4 80.5,-2.2 77.4,14.1 -2.2,11.5 -42.9,33.1 -88.5,35.2 -25.2,1.2 -46.5,-2.1 -67.9,-9.6 -5.3,-1.9 -10.4,-4.1 -14,-7.8 -5.9,-6 -5.4,-13.7 0.8,-21.7"
         style="fill:#102048;fill-opacity:1;fill-rule:nonzero;stroke:none"
         id="path124" /><path
         d="m 21380.1,9793.6 c -6.7,-24.3 -25.5,-19.4 -68.9,-31 -9.9,-2.6 -62.3,-21.1 -64.9,-6.3 -1.8,10.5 23.3,38.9 58.3,51.7 19.3,7 37,9.2 56,7.9 4.7,-0.3 9.4,-1.1 13.3,-3.4 6.6,-3.8 8.5,-10.5 6.2,-18.9"
         style="fill:#102048;fill-opacity:1;fill-rule:nonzero;stroke:none"
         id="path126" /><path
         d="m 21716.7,9506.7 c -45.1,0 -81.7,36.5 -81.7,81.6 0,45.1 36.6,81.7 81.7,81.7 45.1,0 81.6,-36.6 81.6,-81.7 0,-45.1 -36.5,-81.6 -81.6,-81.6"
         style="fill:#e67968;fill-opacity:1;fill-rule:nonzero;stroke:none"
         id="path128" /><path
         d="m 24536.8,12845.9 c -686.6,0 -1243.2,-556.6 -1243.2,-1243.2 0,-218.9 57.1,-424.4 156.4,-603 l -260.5,-634 610.9,237.1 c 206.3,-152.2 460.4,-243.2 736.4,-243.2 686.6,0 1243.2,556.5 1243.2,1243.1 0,686.6 -556.6,1243.2 -1243.2,1243.2"
         style="fill:#ffffff;fill-opacity:1;fill-rule:nonzero;stroke:none"
         id="path130" /><path
         d="m 23804.5,10633.3 11.9,-8.8 c 211,-155.7 460.1,-238 720.4,-238 670.6,0 1216.1,545.6 1216.1,1216.2 0,670.6 -545.5,1216.2 -1216.1,1216.2 -670.6,0 -1216.2,-545.6 -1216.2,-1216.2 0,-205.9 52.9,-409.9 153,-589.9 l 6.4,-11.4 -241.6,-587.8 z m -663.9,-315.5 279.6,680.2 c -100.5,185.2 -153.6,393.9 -153.6,604.7 0,700.4 569.8,1270.2 1270.2,1270.2 700.3,0 1270.1,-569.8 1270.1,-1270.2 0,-700.4 -569.8,-1270.1 -1270.1,-1270.1 -266.9,0 -522.6,82.8 -740.4,239.7 l -655.8,-254.5"
         style="fill:#86a7ff;fill-opacity:1;fill-rule:nonzero;stroke:none"
         id="path132" /><path
         d="m 25038,11333.4 c 0,110.1 -43.2,165.2 -108.6,165.2 -64,0 -108.6,-53.6 -108.6,-165.2 0,-111.6 44.6,-165.2 108.6,-165.2 65.4,0 108.6,55 108.6,165.2 z m -366.1,0 c 0,175.6 107.2,287.2 257.5,287.2 151.8,0 258.9,-111.6 258.9,-287.2 0,-175.6 -107.1,-287.3 -258.9,-287.3 -150.3,0 -257.5,111.7 -257.5,287.3 z m 171.2,766.4 h 177 l -711.3,-1041.7 h -177.1 z m -512,-275.3 c 0,111.6 -43.1,165.2 -108.6,165.2 -64.1,0 -108.7,-55.1 -108.7,-165.2 0,-110.1 44.6,-165.2 108.7,-165.2 65.5,0 108.6,53.5 108.6,165.2 z m -367.5,0 c 0,175.6 107.1,287.2 258.9,287.2 151.8,0 257.4,-110.1 257.4,-287.2 0,-177.1 -105.6,-287.2 -257.4,-287.2 -151.8,0 -258.9,111.6 -258.9,287.2"
         style="fill:#86a7ff;fill-opacity:1;fill-rule:nonzero;stroke:none"
         id="path134" /><path
         d="m 9936.3,3418.1 149.5,-1506.2 1468.1,16 -667.2,684.8 -152.3,834.4 -798.1,-29"
         style="fill:#102048;fill-opacity:1;fill-rule:nonzero;stroke:none"
         id="path136" /><path
         d="m 11163,2239.5 c -121.7,0 -209.3,33.4 -260.9,99.7 -86.9,111.8 -36.8,272.9 -34.6,279.7 3.4,10.7 14.8,16.5 25.4,13.1 10.6,-3.4 16.5,-14.8 13.1,-25.4 -0.4,-1.5 -45.7,-148 28.2,-242.7 49,-62.8 140.2,-90.6 271,-82.6 11.1,0.7 20.8,-7.8 21.5,-19 0.7,-11.1 -7.8,-20.7 -19,-21.4 -15.4,-1 -30.3,-1.4 -44.7,-1.4"
         style="fill:#ffffff;fill-opacity:1;fill-rule:nonzero;stroke:none"
         id="path138" /><path
         d="m 7532.38,3443 -232.16,-773.9 -638.47,-1151.2 1325.3,445 290.21,1460.7 -744.88,19.4"
         style="fill:#102048;fill-opacity:1;fill-rule:nonzero;stroke:none"
         id="path140" /><path
         d="m 7023.18,2123.9 c -9.67,0 -18.24,6.9 -19.92,16.8 -1.89,11 5.51,21.5 16.53,23.4 195.18,33.4 312.03,99.5 347.3,196.3 49.93,137 -81,294 -82.33,295.6 -7.22,8.5 -6.15,21.3 2.38,28.5 8.54,7.2 21.31,6.2 28.53,-2.4 6.04,-7.1 147.34,-176.8 89.45,-335.6 -40.6,-111.4 -167.95,-186.2 -378.49,-222.3 -1.16,-0.2 -2.31,-0.3 -3.45,-0.3"
         style="fill:#ffffff;fill-opacity:1;fill-rule:nonzero;stroke:none"
         id="path142" /><path
         d="m 10807.8,8718.2 195.2,-5410 c 6.6,-182.4 -135.2,-336 -317.5,-343.9 l -676.3,-29.4 c -182.23,-7.9 -336.79,132.6 -346.14,314.9 l -297.51,5799.1 1442.25,-330.7"
         style="fill:#3a6bea;fill-opacity:1;fill-rule:nonzero;stroke:none"
         id="path144" /><path
         d="M 10193.1,9021.1 10144,8850 10049.6,8522.9 8484.21,3095.4 c -36.17,-124.7 -153.84,-207.8 -283.39,-199.7 l -837.74,52.3 c -173.26,10.8 -293.63,177.1 -250.99,345 l 1224.75,4788.9 160.86,629.9 1219.9,222.4 475.5,86.9"
         style="fill:#3a6bea;fill-opacity:1;fill-rule:nonzero;stroke:none"
         id="path146" /><path
         d="m 10607.3,2980.4 -40.2,4.9 c 172.5,1401.6 -84.2,4958.4 -135.8,5635.9 l 39.9,10.3 c 50.2,-660 309.7,-4240.9 136.1,-5651.1"
         style="fill:#d8e1fb;fill-opacity:1;fill-rule:nonzero;stroke:none"
         id="path148" /><path
         d="m 7390.23,2980.6 c -58.13,503.8 943.4,3840.8 1362.93,5208.5 l 46.36,11.9 C 8387.05,6854.6 7373.62,3477.7 7430.47,2985.1 l -40.24,-4.5"
         style="fill:#d8e1fb;fill-opacity:1;fill-rule:nonzero;stroke:none"
         id="path150" /><path
         d="m 10807.8,8718.2 -2.2,0.5 2.3,-0.4 -0.1,-0.1"
         style="fill:#7586b4;fill-opacity:1;fill-rule:nonzero;stroke:none"
         id="path152" /><path
         d="m 10049.6,8522.9 v 0 l 94.4,327.1 661.6,-131.3 2.2,-0.5 -336.6,-86.7 c -5,64.7 -7.9,101.3 -8.2,105.1 l -40.3,-3.3 c 0.3,-3.9 3.4,-43 8.6,-112.1 l -381.7,-98.3"
         style="fill:#2a4faf;fill-opacity:1;fill-rule:nonzero;stroke:none"
         id="path154" /><path
         d="m 8336.84,8081.9 160.86,629.9 1219.9,222.4 426.4,-84.2 -94.4,-327.1 L 8799.52,8201 c 102.02,333 167.26,541.8 170.45,551.9 l -38.63,12.2 c -12.58,-40.2 -79.15,-253.2 -178.18,-576 l -416.32,-107.2"
         style="fill:#2a4faf;fill-opacity:1;fill-rule:nonzero;stroke:none"
         id="path156" /><path
         d="m 10431.3,8621.2 c -5.2,69.1 -8.3,108.2 -8.6,112.1 l 40.3,3.3 c 0.3,-3.8 3.2,-40.4 8.2,-105.1 l -39.9,-10.3"
         style="fill:#697eb6;fill-opacity:1;fill-rule:nonzero;stroke:none"
         id="path158" /><path
         d="m 8753.16,8189.1 c 99.03,322.8 165.6,535.8 178.18,576 l 38.63,-12.2 c -3.19,-10.1 -68.43,-218.9 -170.45,-551.9 l -46.36,-11.9"
         style="fill:#697eb6;fill-opacity:1;fill-rule:nonzero;stroke:none"
         id="path160" /><path
         d="m 9393.75,6237.4 c -2.35,0 -4.73,0.3 -7.09,1 -14.39,3.9 -22.89,18.7 -18.98,33.1 l 299.41,1102.4 426.21,302.5 c 12.1,8.6 29,5.7 37.6,-6.4 8.7,-12.2 5.8,-29 -6.4,-37.7 L 9714.11,7341.1 9419.78,6257.3 c -3.27,-12 -14.15,-19.9 -26.03,-19.9"
         style="fill:#1f3c88;fill-opacity:1;fill-rule:nonzero;stroke:none"
         id="path162" /><path
         d="m 9572.22,11590.1 682.08,-1356.9 c 225.5,175.9 465.2,309.7 614.6,385.8 -490.1,969 -1296.68,971.1 -1296.68,971.1"
         style="fill:#1f3c88;fill-opacity:1;fill-rule:nonzero;stroke:none"
         id="path164" /><path
         d="m 12021,11073.1 c 0,0 65.3,224.9 7.2,283 -58,58 -246.6,-297.5 -246.6,-297.5 l -703.8,-776.3 c -69.9,123.6 -139.7,235.4 -208.9,336.7 -149.4,-76.1 -389.1,-209.9 -614.6,-385.8 l 380.4,-756.9 c 94,-186.9 303.7,-285.2 507.4,-237.7 116.8,27.2 218,99.6 281.5,201.3 l 757,1212.4 c 55.7,173.9 -16.9,308.2 -159.6,420.8"
         style="fill:#f9b384;fill-opacity:1;fill-rule:nonzero;stroke:none"
         id="path166" /><path
         d="m 8508.49,9341.2 c -34.54,-130.7 -52.36,-210 -52.36,-210 l 17.28,-430.8 c 0,0 -732.75,-13.7 -948.66,252.8 -145.21,179.2 -128.38,474.6 121.45,1018.8 64.88,141.4 108.22,239.8 169.22,347.2 199.17,-14 471.76,-46.9 751.91,-119.8 l -383.6,-781.8 324.76,-76.4"
         style="fill:#f9b384;fill-opacity:1;fill-rule:nonzero;stroke:none"
         id="path168" /><path
         d="m 9572.22,11590.1 c 0,0 -1069.12,58.6 -1756.71,-1270.6 242.92,-17.7 593.66,-62.5 935.18,-174.2 197.71,572.7 483.32,1217.9 821.53,1444.8"
         style="fill:#1f3c88;fill-opacity:1;fill-rule:nonzero;stroke:none"
         id="path170" /><path
         d="m 10807.9,8718.3 -2334.49,-17.9 c -15.66,257 17.81,710.4 61.53,1145.4 2.7,24.9 4.86,49.2 7.56,74 19.43,188.9 40.48,372.4 59.92,531.1 5.93,51.3 11.87,99.9 17.26,145.2 28.62,225.7 49.12,375.2 49.12,375.2 l 903.59,618.6 c 424.81,-134.4 1035.81,-932.8 1035.81,-932.8 l 199.7,-1938.8"
         style="fill:#1f3c88;fill-opacity:1;fill-rule:nonzero;stroke:none"
         id="path172" /><path
         d="m 12120.2,11328.2 -303.6,-668.7 76.7,-38.5 355.3,642.7 -128.4,64.5"
         style="fill:#1f3c88;fill-opacity:1;fill-rule:nonzero;stroke:none"
         id="path174" /><path
         d="m 12329.5,11410.1 -140.1,70.4 c -2.1,-33.9 -9.8,-64.6 -23.4,-92 l 105,-52.7 c 13.9,26.7 33.5,51.5 58.5,74.3"
         style="fill:#102048;fill-opacity:1;fill-rule:nonzero;stroke:none"
         id="path176" /><path
         d="m 12166,11388.5 c -11.1,-22.5 -26.1,-42.7 -45.8,-60.3 l 128.4,-64.5 c 3,25.6 10.7,49.5 22.4,72.1 l -105,52.7"
         style="fill:#1f3c88;fill-opacity:1;fill-rule:nonzero;stroke:none"
         id="path178" /><path
         d="m 12873.7,11628.7 c -115.7,-230.3 -396.1,-323.1 -626.3,-207.4 -230.2,115.6 -323.1,396.1 -207.4,626.3 115.7,230.2 396.1,323.1 626.3,207.4 230.2,-115.7 323.1,-396.1 207.4,-626.3"
         style="fill:#1f3c88;fill-opacity:1;fill-rule:nonzero;stroke:none"
         id="path180" /><path
         d="m 12782.3,11674.6 c -90.3,-179.8 -309.2,-252.3 -489,-162 -179.8,90.4 -252.3,309.3 -161.9,489.1 90.3,179.7 309.2,252.2 489,161.9 179.8,-90.3 252.3,-309.2 161.9,-489"
         style="fill:#e5ecff;fill-opacity:1;fill-rule:nonzero;stroke:none"
         id="path182" /><path
         d="m 12663.9,11684.7 c -3.3,0 -6.6,0.6 -9.8,1.8 -13.9,5.4 -20.8,21.1 -15.4,34.9 49.3,126.9 18.4,249.9 -75.1,299.3 -13.2,6.9 -18.3,23.2 -11.3,36.4 7,13.2 23.3,18.3 36.5,11.3 118.5,-62.6 159.7,-213.3 100.2,-366.5 -4.1,-10.7 -14.3,-17.2 -25.1,-17.2"
         style="fill:#ffffff;fill-opacity:1;fill-rule:nonzero;stroke:none"
         id="path184" /><path
         d="m 12203.3,10941.9 c -52.5,-40.2 -115.1,-60.3 -142.6,-30.4 -26.6,28.9 23.2,111.1 40,134.7 23.6,33.5 127,129.9 170.2,75.8 43.8,-54.8 -4.6,-131.9 -67.6,-180.1"
         style="fill:#e28b6d;fill-opacity:1;fill-rule:nonzero;stroke:none"
         id="path186" /><path
         d="m 12245.7,10807.7 c -52.6,-40.2 -115.2,-60.3 -142.7,-30.4 -26.5,28.9 23.3,111 40,134.7 23.6,33.5 127,129.8 170.2,75.8 43.8,-54.8 -4.6,-131.9 -67.5,-180.1"
         style="fill:#e28b6d;fill-opacity:1;fill-rule:nonzero;stroke:none"
         id="path188" /><path
         d="m 12258.1,10666.9 c -46.9,-36 -102.8,-53.9 -127.4,-27.1 -23.7,25.7 20.8,99.1 35.7,120.3 21.1,29.9 113.5,116 152.1,67.7 39.1,-49 -4.1,-117.9 -60.4,-160.9"
         style="fill:#e28b6d;fill-opacity:1;fill-rule:nonzero;stroke:none"
         id="path190" /><path
         d="m 8250.07,8706.9 c 0,0 587.35,-59.1 597.94,3.4 10.59,62.5 -128.26,93.9 -128.26,93.9 0,0 290.11,-12.5 281.22,40.4 -8.89,52.9 -134.21,89.2 -134.21,89.2 0,0 203.45,-5.6 182.28,53.1 -21.18,58.6 -192.17,101.4 -192.17,101.4 0,0 270.38,49.2 167.43,101.3 -102.95,52.1 -664.51,180.8 -664.51,180.8 l -109.72,-663.5"
         style="fill:#f9b384;fill-opacity:1;fill-rule:nonzero;stroke:none"
         id="path192" /><path
         d="m 8494.12,9316.4 c -2.14,0 -4.32,0.3 -6.49,0.8 l -537.53,132.7 c -14.47,3.6 -23.3,18.2 -19.73,32.7 3.57,14.4 18.18,23.3 32.67,19.7 l 537.53,-132.7 c 14.47,-3.6 23.3,-18.2 19.73,-32.7 -3.03,-12.3 -14.05,-20.5 -26.18,-20.5"
         style="fill:#e28b6d;fill-opacity:1;fill-rule:nonzero;stroke:none"
         id="path194" /><path
         d="m 10905.1,10076.6 c -6.5,0 -13.1,2.4 -18.3,7.1 -11,10.1 -11.6,27.2 -1.5,38.2 l 472.3,512.8 c 10.1,10.9 27.1,11.6 38.1,1.5 11,-10.1 11.7,-27.1 1.6,-38.1 l -472.3,-512.8 c -5.4,-5.8 -12.6,-8.7 -19.9,-8.7"
         style="fill:#e28b6d;fill-opacity:1;fill-rule:nonzero;stroke:none"
         id="path196" /><path
         d="m 9501.29,10962.9 c -163.97,0 -279.25,104.3 -281.11,106 -10.92,10.1 -11.56,27.2 -1.42,38.1 10.14,10.9 27.18,11.6 38.11,1.5 10.83,-10 268.08,-240.3 555.75,66.1 10.2,10.9 27.27,11.4 38.15,1.2 10.86,-10.2 11.4,-27.3 1.2,-38.1 -125.4,-133.6 -247.65,-174.8 -350.68,-174.8"
         style="fill:#3a6bea;fill-opacity:1;fill-rule:nonzero;stroke:none"
         id="path198" /><path
         d="m 8574.31,10212.7 c -10.74,-94.3 -21.5,-192.7 -31.81,-292.9 -2.7,-24.8 -4.86,-49.1 -7.56,-74 189.99,256.2 184.38,581.5 184.08,594.2 -78,-107 -127.55,-195.2 -144.71,-227.3"
         style="fill:#102048;fill-opacity:1;fill-rule:nonzero;stroke:none"
         id="path200" /><path
         d="m 9824.14,12192.2 v -679.3 c 0,-161.2 -130.02,-291.2 -290.54,-291.2 -161.2,0 -291.22,130 -291.22,291.2 v 679.3 h 581.76"
         style="fill:#f9b384;fill-opacity:1;fill-rule:nonzero;stroke:none"
         id="path202" /><path
         d="m 9824.14,12009.1 v -463 c -264.68,134 -372.8,376.1 -372.8,376.1 l 372.8,86.9"
         style="fill:#102048;fill-opacity:1;fill-rule:nonzero;stroke:none"
         id="path204" /><path
         d="m 9994.29,12639.6 c 0,0 236.31,-1094.5 -543.12,-717.2 l -269.48,368.9 178.27,539 406.3,24.9 228.03,-215.6"
         style="fill:#f9b384;fill-opacity:1;fill-rule:nonzero;stroke:none"
         id="path206" /><path
         d="m 9994.29,12639.6 c 0,0 -551.41,443.6 -750.41,-331.7 l -174.13,33.2 c 0,0 -147.23,594.3 381.42,704.8 456.06,95.4 543.12,-406.3 543.12,-406.3"
         style="fill:#eb5d60;fill-opacity:1;fill-rule:nonzero;stroke:none"
         id="path208" /><path
         d="m 9286.22,12370.8 c 65.56,-65.6 74.27,-163.2 19.46,-218 -54.81,-54.8 -152.39,-46.1 -217.96,19.5 -65.55,65.5 -74.27,163.1 -19.45,217.9 54.81,54.8 152.39,46.1 217.95,-19.4"
         style="fill:#f9b384;fill-opacity:1;fill-rule:nonzero;stroke:none"
         id="path210" /><path
         d="m 9248.67,12215.5 c -4.91,0 -9.63,2.7 -12.02,7.3 -0.44,0.9 -44.12,84.4 -113.08,77.1 -7.52,-0.7 -14.05,4.6 -14.84,12 -0.79,7.4 4.58,14 11.99,14.8 87.51,9.3 137.86,-87.5 139.97,-91.6 3.38,-6.7 0.73,-14.8 -5.9,-18.2 -1.96,-1 -4.06,-1.4 -6.12,-1.4"
         style="fill:#102048;fill-opacity:1;fill-rule:nonzero;stroke:none"
         id="path212" /><path
         d="m 9960.49,12378.2 c 0,-20.9 -16.99,-37.9 -37.95,-37.9 -20.96,0 -37.96,17 -37.96,37.9 0,21 17,38 37.96,38 20.96,0 37.95,-17 37.95,-38"
         style="fill:#102048;fill-opacity:1;fill-rule:nonzero;stroke:none"
         id="path214" /><path
         d="m 9720.97,12374.9 c 0,-21 -17,-38 -37.96,-38 -20.96,0 -37.95,17 -37.95,38 0,20.9 16.99,37.9 37.95,37.9 20.96,0 37.96,-17 37.96,-37.9"
         style="fill:#102048;fill-opacity:1;fill-rule:nonzero;stroke:none"
         id="path216" /><path
         d="m 9854.91,12156.9 c -10.03,0 -21.54,1.3 -31.82,5.8 -6.84,2.9 -9.99,10.9 -7.03,17.7 2.94,6.8 10.88,10 17.74,7 8.45,-3.6 21.42,-4.5 35.58,-2.4 9.86,1.4 17.84,5.7 21.88,11.6 3.13,4.7 4.02,9.5 2.79,15.2 -4.19,19.4 -31.97,44.2 -56.02,58.9 -6.36,3.9 -8.35,12.2 -4.46,18.6 3.9,6.3 12.2,8.3 18.56,4.4 9.98,-6.1 60.19,-38.5 68.3,-76.3 2.78,-12.8 0.4,-25.3 -6.86,-36 -8.39,-12.3 -22.69,-20.5 -40.25,-23.1 -4.68,-0.7 -11.17,-1.4 -18.41,-1.4"
         style="fill:#102048;fill-opacity:1;fill-rule:nonzero;stroke:none"
         id="path218" /><path
         d="m 9787.44,12043.5 c -77.79,0 -129.31,63.9 -129.93,64.6 -4.61,5.9 -3.61,14.4 2.24,19 5.84,4.6 14.32,3.6 18.94,-2.2 2.59,-3.3 62.97,-77.4 149.16,-47.4 7.03,2.5 14.73,-1.2 17.18,-8.3 2.46,-7 -1.26,-14.7 -8.29,-17.2 -17.34,-6 -33.85,-8.5 -49.3,-8.5"
         style="fill:#102048;fill-opacity:1;fill-rule:nonzero;stroke:none"
         id="path220" /><path
         d="m 9755.63,12488 c -8.63,-22.9 -33.32,-17.9 -89.95,-27.8 -12.96,-2.3 -81.33,-18.8 -84.84,-4.6 -2.5,10 30.21,36.5 75.85,47.8 25.21,6.3 48.35,8 73.3,6.3 6.11,-0.4 12.26,-1.3 17.43,-3.5 8.61,-3.8 11.19,-10.2 8.21,-18.2"
         style="fill:#102048;fill-opacity:1;fill-rule:nonzero;stroke:none"
         id="path222" /><path
         d="m 9861.03,12489.4 c 7.33,-22.8 29.64,-17.8 80.43,-27.7 11.62,-2.3 72.84,-18.7 76.24,-4.6 2.5,10.1 -26.47,36.5 -67.34,47.8 -22.57,6.3 -43.37,7.9 -65.85,6.2 -5.51,-0.4 -11.05,-1.2 -15.75,-3.5 -7.83,-3.8 -10.27,-10.2 -7.73,-18.2"
         style="fill:#102048;fill-opacity:1;fill-rule:nonzero;stroke:none"
         id="path224" /><path
         d="m 9489.31,12171.6 c -50.3,0 -91.08,40.8 -91.08,91.1 0,50.3 40.78,91.1 91.08,91.1 50.31,0 91.09,-40.8 91.09,-91.1 0,-50.3 -40.78,-91.1 -91.09,-91.1"
         style="fill:#f39176;fill-opacity:1;fill-rule:nonzero;stroke:none"
         id="path226" /><path
         d="m 5422.6,13695.5 c 727.91,0 1317.99,-590.1 1317.99,-1318 0,-232.1 -60.47,-449.9 -165.81,-639.3 l 276.23,-672.2 -647.71,251.4 c -218.68,-161.3 -488.09,-257.9 -780.7,-257.9 -727.91,0 -1317.99,590.1 -1317.99,1318 0,727.9 590.08,1318 1317.99,1318"
         style="fill:#ffffff;fill-opacity:1;fill-rule:nonzero;stroke:none"
         id="path228" /><path
         d="m 5422.6,13668.5 c -711.86,0 -1291,-579.1 -1291,-1291 0,-711.8 579.14,-1291 1291,-1291 276.27,0 540.7,87.4 764.68,252.6 l 11.94,8.8 602.92,-234 -257.27,626 6.32,11.4 c 106.25,191.1 162.41,407.6 162.41,626.2 0,711.9 -579.14,1291 -1291,1291 z m 1477.28,-2650.4 -692.59,268.8 c -230.74,-166.5 -501.74,-254.4 -784.69,-254.4 -741.62,0 -1344.98,603.4 -1344.98,1345 0,741.6 603.36,1345 1344.98,1345 741.62,0 1344.98,-603.4 1344.98,-1345 0,-223.4 -56.31,-444.7 -162.93,-641 l 295.23,-718.4"
         style="fill:#86a7ff;fill-opacity:1;fill-rule:nonzero;stroke:none"
         id="path230" /><path
         d="m 5248.1,11892.3 c 0,92.5 72.57,161.6 174.26,161.6 101.61,0 174.26,-69.1 174.26,-161.6 0,-90.7 -72.65,-165.2 -174.26,-165.2 -101.69,0 -174.26,74.5 -174.26,165.2"
         style="fill:#86a7ff;fill-opacity:1;fill-rule:nonzero;stroke:none"
         id="path232" /><path
         d="m 5253.49,13012.3 h 337.65 l -56.31,-829.6 H 5309.8 l -56.31,829.6"
         style="fill:#86a7ff;fill-opacity:1;fill-rule:nonzero;stroke:none"
         id="path234" /><path
         d="m 21049.4,13699.8 c -374.2,160.2 -823.2,53.2 -1081.3,-285.2 -304.9,-399.7 -227.9,-970.9 171.8,-1275.8 303.4,-231.4 705.5,-242.6 1015,-59.9 l -463,783.7 357.5,837.2"
         style="fill:#86a7ff;fill-opacity:1;fill-rule:nonzero;stroke:none"
         id="path236" /><path
         d="m 21038.2,12754.7 463.1,-783.7 c 98.2,58 187.2,135.4 260.7,231.7 217.1,284.7 240.4,656.4 91.4,956.9 l -815.2,-404.9"
         style="fill:#d3dfff;fill-opacity:1;fill-rule:nonzero;stroke:none"
         id="path238" /><path
         d="m 21822,13384.5 c -60.2,121.4 -148.3,231.2 -263.3,318.8 -61.3,46.8 -126.6,84.5 -194.4,113.5 l -357.6,-837.2 815.3,404.9"
         style="fill:#e5ecff;fill-opacity:1;fill-rule:nonzero;stroke:none"
         id="path240" /><path
         d="M 11386,14217.9 H 9023.68 v 1231.8 h 53.97 V 14271.9 H 11386 v -54"
         style="fill:#86a7ff;fill-opacity:1;fill-rule:nonzero;stroke:none"
         id="path242" /><path
         d="m 9282.08,14413.7 -45.82,28.5 217.72,349.9 149.57,-244.7 314.44,670.8 321.41,-607.1 870.8,830.3 37.2,-39.1 -922.4,-879.4 -304.08,574.4 -311.09,-663.7 -156.26,255.7 -171.49,-275.6"
         style="fill:#86a7ff;fill-opacity:1;fill-rule:nonzero;stroke:none"
         id="path244" /><path
         d="M 28950.6,1892.2 H 936.223 v 54 H 28950.6 v -54"
         style="fill:#102048;fill-opacity:1;fill-rule:nonzero;stroke:none"
         id="path246" /></g></g></svg>
