<?xml version="1.0" encoding="UTF-8" standalone="no"?>
<svg
   xmlns:dc="http://purl.org/dc/elements/1.1/"
   xmlns:cc="http://creativecommons.org/ns#"
   xmlns:rdf="http://www.w3.org/1999/02/22-rdf-syntax-ns#"
   xmlns:svg="http://www.w3.org/2000/svg"
   xmlns="http://www.w3.org/2000/svg"
   xmlns:sodipodi="http://sodipodi.sourceforge.net/DTD/sodipodi-0.dtd"
   xmlns:inkscape="http://www.inkscape.org/namespaces/inkscape"
   version="1.1"
   id="svg2"
   xml:space="preserve"
   width="4000"
   height="2666.6667"
   viewBox="0 0 4000 2666.6667"
   sodipodi:docname="Checklist.eps"><metadata
     id="metadata8"><rdf:RDF><cc:Work
         rdf:about=""><dc:format>image/svg+xml</dc:format><dc:type
           rdf:resource="http://purl.org/dc/dcmitype/StillImage" /></cc:Work></rdf:RDF></metadata><defs
     id="defs6" /><sodipodi:namedview
     pagecolor="#ffffff"
     bordercolor="#666666"
     borderopacity="1"
     objecttolerance="10"
     gridtolerance="10"
     guidetolerance="10"
     inkscape:pageopacity="0"
     inkscape:pageshadow="2"
     inkscape:window-width="640"
     inkscape:window-height="480"
     id="namedview4" /><g
     id="g10"
     inkscape:groupmode="layer"
     inkscape:label="ink_ext_XXXXXX"
     transform="matrix(1.3333333,0,0,-1.3333333,0,2666.6667)"><g
       id="g12"
       transform="scale(0.1)"><path
         d="M 0,0 H 30000 V 20000 H 0 Z"
         style="fill:#ffffff;fill-opacity:1;fill-rule:nonzero;stroke:none"
         id="path14" /><path
         d="m 27344.1,6322.5 c 28.3,-101.7 50.6,-205.7 66.7,-311.2 l 39.5,6 c -16.3,107.1 -39,212.7 -67.7,315.9 l -38.5,-10.7 m 95.4,-628.1 c 0.8,-25.3 1.2,-50.6 1.2,-75.9 0,-80.4 -3.8,-161.1 -11.5,-242 l 39.8,-3.8 c 7.9,82.2 11.7,164.2 11.7,245.8 0,25.7 -0.4,51.4 -1.2,77.1 l -40,-1.2 v 0 m -60.1,-632 c -22.8,-102.2 -52.3,-204.1 -88.8,-305.4 l 37.7,-13.5 c 37,102.8 66.9,206.3 90.2,310.1 l -39.1,8.8 v 0 m -214.8,-597.3 c -47,-92.7 -100.3,-184.4 -160.4,-274.6 l 33.3,-22.1 c 60.9,91.4 115.1,184.5 162.8,278.6 l -35.7,18.1 m -351.4,-529 c -66.6,-79.2 -139,-156.8 -217.4,-232.6 l 27.8,-28.8 c 79.4,76.7 152.7,155.4 220.2,235.6 l -30.6,25.8 m -456.7,-442.7 c -80.8,-64.5 -166.5,-127.3 -257.4,-188 l 22.2,-33.3 c 91.8,61.4 178.5,124.8 260.1,190 l -24.9,31.3 v 0 m -529.3,-354.8 c -90.2,-50.8 -184.6,-99.8 -283.3,-146.9 l 17.2,-36.1 c 99.5,47.4 194.8,96.9 285.7,148.1 l -19.6,34.9 m -575.7,-275.3 c -96.2,-38.8 -196,-75.9 -299.5,-111.3 l 12.9,-37.8 c 104.2,35.5 204.7,72.9 301.5,112.1 l -14.9,37 m -604.4,-207 c -100,-28.8 -203,-56 -309.2,-81.5 l 9.3,-38.9 c 106.8,25.7 210.4,53 310.9,81.9 l -11,38.5 m -621.7,-150 c -102.3,-20.3 -207.2,-39.2 -314.9,-56.5 l 6.4,-39.5 c 108.1,17.4 213.5,36.4 316.3,56.8 l -7.8,39.2 m -631.6,-102.2 c -103.7,-13.2 -209.8,-25.1 -318.1,-35.7 l 3.8,-39.8 c 108.8,10.6 215.2,22.5 319.3,35.8 l -5,39.7 m -637.2,-62.1 c -104.5,-7.2 -211.1,-13.2 -319.7,-17.9 l 1.7,-40 c 109,4.7 215.9,10.8 320.8,18 l -2.8,39.9 m -639.9,-28.1 c -95.2,-1.8 -192,-2.8 -290.3,-2.8 -10,0 -20,0 -30.1,0 l -0.1,-40 c 10.1,0 20.2,0 30.2,0 98.6,0 195.6,1 291.1,2.9 l -0.8,39.9 v 0 m -640.8,1.2 c -105.1,2.3 -211.9,5.7 -320.3,10.2 l -1.7,-40 c 108.7,-4.5 215.7,-7.9 321.1,-10.2 l 0.9,40 m -640.4,26.3 c -105.1,6.2 -211.7,13.4 -319.8,21.7 l -3,-39.9 c 108.3,-8.3 215.1,-15.5 320.4,-21.7 l 2.4,39.9 m -639.2,48.5 c -105,9.6 -211.3,20.1 -319,31.6 l -4.2,-39.8 c 107.8,-11.5 214.4,-22 319.5,-31.7 l 3.7,39.9 m -637.5,67.8 c -104.8,12.7 -210.8,26.2 -318,40.6 l -5.4,-39.7 c 107.5,-14.4 213.6,-27.9 318.6,-40.6 l 4.8,39.7 m -635.5,85.2 c -104.5,15.3 -210.2,31.5 -317,48.5 l -6.2,-39.5 c 106.9,-17 212.7,-33.2 317.4,-48.6 l 5.8,39.6 m -633.3,100.6 c -104.2,17.8 -209.5,36.3 -315.8,55.6 l -7.2,-39.3 c 106.5,-19.4 211.9,-37.9 316.2,-55.7 l 6.8,39.4 m -631,114.6 c -103.9,19.9 -208.7,40.6 -314.6,62.1 l -7.9,-39.2 c 105.9,-21.5 210.9,-42.2 314.9,-62.2 l 7.6,39.3 m -628.6,127.2 c -103.5,21.9 -208,44.6 -313.4,68 l -8.7,-39.1 c 105.6,-23.4 210.1,-46.1 313.8,-68.1 l 8.3,39.2 m -626.2,138.7 c -103.2,23.8 -207.3,48.2 -312.2,73.3 l -9.3,-38.9 c 105,-25.1 209.2,-49.6 312.5,-73.4 l 9,39 m -623.8,149.2 c -102.8,25.5 -206.5,51.6 -311,78.3 l -9.9,-38.7 c 104.6,-26.8 208.3,-52.9 311.3,-78.4 l 9.6,38.8 v 0 m -621.4,159 c -30,7.9 -60.1,15.8 -90.2,23.8 -73.9,19.7 -147.5,38.5 -220.8,56.5 l -9.6,-38.8 c 73.1,-18 146.5,-36.7 220.1,-56.3 30.1,-8 60.2,-16 90.3,-23.9 l 10.2,38.7 v 0 m -624.1,152.8 c -105.5,22.9 -210.5,44.3 -315,64.1 l -7.4,-39.3 c 104.1,-19.8 208.7,-41 313.9,-63.9 l 8.5,39.1 m -631.8,119.8 c -106.6,17.3 -212.7,33 -318.1,47.2 l -5.4,-39.6 c 105.1,-14.2 210.8,-29.9 317.1,-47.1 l 6.4,39.5 m -637.4,86.1 c -107.3,11.6 -214.1,21.8 -320.1,30.5 l -3.3,-39.8 c 105.7,-8.8 212.1,-18.9 319.1,-30.5 l 4.3,39.8 v 0 m -640.9,52.9 c -107.8,6.1 -214.9,10.9 -321.2,14.3 l -1.3,-40 c 106,-3.4 212.7,-8.1 320.2,-14.3 l 2.3,40 m -642.7,20.8 c -37.4,0.3 -74.7,0.4 -111.9,0.4 -70.2,0 -140,-0.5 -209.4,-1.5 l 0.6,-40 c 69.2,1 138.8,1.5 208.8,1.5 37.1,0 74.3,-0.1 111.6,-0.4 l 0.3,40 m -642.5,-9.6 c -107.9,-4.1 -214.9,-9.3 -321,-15.5 l 2.4,-40 c 105.8,6.3 212.5,11.5 320.1,15.5 l -1.5,40 v 0 m -641.5,-37.8 c -107.7,-8.5 -214.4,-18.1 -320,-28.6 l 3.9,-39.8 c 105.4,10.5 211.9,20 319.3,28.6 l -3.2,39.8 m -639.4,-63.1 c -107.38,-12.6 -213.63,-26 -318.74,-40.1 l 5.31,-39.6 c 104.9,14.1 210.93,27.4 318.03,40 l -4.6,39.7 M 9421.92,3569 c -107.06,-16 -212.85,-32.6 -317.34,-49.6 l 6.43,-39.5 c 104.33,17 209.94,33.6 316.81,49.5 l -5.9,39.6 M 8787.9,3465.9 c -106.83,-18.6 -212.2,-37.5 -316.08,-56.6 l 7.23,-39.4 c 103.78,19.1 209.03,38 315.72,56.6 l -6.87,39.4 m -631.66,-115.7 c -106.81,-20.4 -211.9,-40.7 -315.24,-60.7 l 7.62,-39.3 c 103.32,20.1 208.36,40.4 315.1,60.7 l -7.48,39.3 m -630.3,-121.8 c -107.14,-20.7 -212.2,-40.9 -315.15,-60.2 l 7.4,-39.3 c 103.04,19.3 208.17,39.5 315.34,60.2 l -7.59,39.3 m -630.63,-117.9 c -108.02,-19.1 -213.43,-36.9 -316.15,-53 l 6.21,-39.5 c 103.02,16.2 208.68,34 316.89,53.1 l -6.95,39.4 m -633.24,-98.3 c -109.63,-13.9 -215.73,-25.2 -318.2,-33.5 l 3.21,-39.9 c 103.19,8.4 209.88,19.7 320.01,33.7 l -5.02,39.7 m -637.24,-49 c -14.53,-0.2 -28.98,-0.2 -43.33,-0.2 -95.67,0 -187.39,3.8 -275.06,12 l -3.72,-39.9 c 89.09,-8.3 182.04,-12.1 278.78,-12.1 14.51,0 29.11,0 43.8,0.2 l -0.47,40 m -631.22,64.6 c -106.25,27.4 -204.6,64.2 -294.92,111.7 l -18.61,-35.5 c 93.38,-49 194.69,-86.9 303.54,-115 l 9.99,38.8 v 0 m -549.66,295 c -72.58,70.1 -137.39,151.9 -194.27,247.2 l -34.34,-20.5 c 58.56,-98.1 125.6,-182.9 200.83,-255.5 l 27.78,28.8 m -327.14,534.4 c -36.63,101 -69.86,202.2 -99.75,303.7 l -38.37,-11.4 c 30.13,-102.2 63.61,-204.2 100.52,-306 l 37.6,13.7 m -180.58,612.9 c -23.85,104.4 -44.3,209 -61.44,313.6 l -39.47,-6.4 c 17.26,-105.5 37.88,-210.9 61.92,-316.1 l 38.99,8.9 m -103.29,630.5 c -10.71,106.3 -18.09,212.6 -22.25,318.8 l -39.97,-1.5 c 4.19,-107.1 11.64,-214.2 22.43,-321.3 l 39.79,4 v 0 m -25.11,638.5 c 2.24,106.5 7.64,212.8 16.11,319 l -39.87,3.2 c -8.54,-106.9 -13.98,-214.1 -16.23,-321.4 l 39.99,-0.8 m 50.6,636.3 c 14.47,105.3 31.89,210.2 52.18,314.8 l -39.27,7.6 c -20.42,-105.3 -37.97,-210.9 -52.54,-316.9 l 39.63,-5.5 m 121.27,626.1 c 25.78,103.2 54.3,206 85.47,308.1 l -38.26,11.7 c -31.37,-102.8 -60.07,-206.2 -86.01,-310.1 l 38.8,-9.7 m 186.35,611.6 c 36.01,100.1 74.54,199.5 115.49,298.3 l -36.96,15.3 c -41.18,-99.3 -79.93,-199.4 -116.16,-300 l 37.63,-13.6 m 244.78,590.9 c 45.19,96.3 92.66,191.9 142.33,286.6 l -35.42,18.6 C 4467.8,8414 4420.06,8317.9 4374.62,8221 l 36.21,-17 m 296.98,566.8 c 53.39,92.1 108.85,183.2 166.29,273.5 l -33.75,21.5 c -57.73,-90.7 -113.47,-182.4 -167.14,-274.9 l 34.6,-20.1 m 343.08,539.3 c 60.58,87.3 123.01,173.5 187.22,258.7 l -31.95,24.1 c -64.51,-85.6 -127.25,-172.3 -188.13,-260 l 32.86,-22.8 m 384.33,510.2 c 67.21,82.5 136.08,163.8 206.53,244 l -30.04,26.4 c -70.78,-80.6 -139.97,-162.3 -207.5,-245.1 l 31.01,-25.3 m 422.05,480.2 c 73.24,77.4 147.96,153.5 224.1,228.3 l -28.04,28.6 c -76.48,-75.2 -151.54,-151.7 -225.11,-229.4 l 29.05,-27.5 m 456.4,448.6 c 78.76,72 158.83,142.6 240.16,211.8 l -25.92,30.4 c -81.68,-69.4 -162.12,-140.4 -241.23,-212.7 l 26.99,-29.5 m 487.86,415 c 83.84,66.2 168.84,131 254.93,194.2 l -23.67,32.2 c -86.48,-63.4 -171.86,-128.5 -256.07,-195.1 l 24.81,-31.3 m 516.8,379.2 c 88.52,60.2 178.05,118.7 268.52,175.4 l -21.26,33.9 c -90.88,-57 -180.82,-115.8 -269.74,-176.2 l 22.48,-33.1 m 543.42,340.9 c 92.82,53.5 186.51,105.2 280.97,155.1 l -18.66,35.4 c -94.91,-50.1 -189.04,-102.1 -282.3,-155.9 l 19.99,-34.6 m 567.74,299.3 c 96.46,46.2 193.62,90.4 291.4,132.6 l -15.83,36.7 c -98.27,-42.4 -195.91,-86.8 -292.84,-133.2 l 17.28,-36.1 h -0.01 m 587.84,253.3 c 99.87,38.3 200.27,74.5 301.14,108.4 l -12.74,37.9 c -101.4,-34.1 -202.34,-70.4 -302.72,-108.9 l 14.32,-37.4 m 606.59,203.7 c 102.76,29.7 205.89,56.9 309.32,81.8 l -9.34,38.9 c -104.02,-25 -207.73,-52.4 -311.06,-82.2 l 11.09,-38.5 h -0.01 m 621.98,149.3 c 105,20.1 210.2,37.6 315.5,52.5 l -5.6,39.6 c -105.9,-15 -211.8,-32.6 -317.4,-52.8 l 7.5,-39.3 m 633.9,89.3 c 106.5,9.6 213,16.5 319.5,20.5 l -1.5,39.9 c -107.2,-4 -214.4,-10.9 -321.6,-20.5 l 3.6,-39.9 m 639.2,23.8 c 106.7,-1.9 213.2,-6.6 319.4,-14.4 l 2.9,39.9 c -106.9,7.8 -214.2,12.6 -321.6,14.4 l -0.7,-39.9 m 637.4,-47 c 105.5,-14 210.7,-31 315.4,-51.3 l 7.6,39.3 c -105.5,20.4 -211.5,37.6 -317.8,51.6 l -5.2,-39.6 v 0 m 627.1,-121.4 c 102.8,-26.4 205.1,-56.1 306.7,-89 l 12.3,38 c -102.4,33.2 -205.5,63.1 -309.1,89.8 l -9.9,-38.8 v 0 m 607.2,-196.9 c 98.6,-38.9 196.4,-81 293.5,-126.5 l 17,36.3 c -97.8,45.8 -196.5,88.2 -295.8,127.4 l -14.7,-37.2 m 578.5,-270.9 c 92.8,-50.6 184.7,-104.5 275.7,-161.6 l 21.3,33.9 c -91.7,57.5 -184.3,111.8 -277.8,162.8 l -19.2,-35.1 m 541.2,-339.5 c 85.8,-61.3 170.7,-125.7 254.6,-193.3 l 25.1,31.2 c -84.5,68 -170,132.9 -256.5,194.6 l -23.2,-32.6 v 0.1 m 497.9,-400.6 c 50.8,-45.7 101.2,-92.7 151.1,-141 27.4,-26.5 54.9,-52.6 82.4,-78.4 l 27.3,29.1 c -27.3,25.7 -54.6,51.8 -81.9,78.1 -50.3,48.5 -101,95.9 -152.1,141.9 l -26.8,-29.7 m 471.8,-434.6 c 82,-71.1 164.3,-139.5 247,-205.4 l 24.9,31.3 c -82.2,65.5 -164.1,133.6 -245.7,204.3 l -26.2,-30.2 m 502.4,-400.1 c 87.6,-63.8 175.5,-124.9 263.7,-183.4 l 22.1,33.3 c -87.7,58.2 -175.1,119 -262.2,182.5 l -23.6,-32.4 m 535.2,-355 c 92.8,-55.8 185.8,-108.8 279.1,-159.3 l 19,35.2 c -92.7,50.2 -185.2,102.9 -277.5,158.3 l -20.6,-34.2 m 565,-305.9 c 97.2,-47.1 194.6,-91.7 292.1,-133.8 l 15.9,36.8 c -97.1,41.8 -193.9,86.1 -290.6,133 l -17.4,-36 m 589.9,-254.6 c 100.8,-38.4 201.7,-74.4 302.7,-108.1 l 12.7,37.9 c -100.5,33.6 -200.9,69.4 -301.1,107.6 l -14.3,-37.4 m 609.5,-203.8 c 103.4,-30 206.9,-57.8 310.3,-83.7 l 9.7,38.8 c -102.9,25.8 -205.9,53.5 -308.8,83.4 l -11.2,-38.5 v 0 m 623.5,-156.1 c 105.2,-22.4 210.3,-43 315.4,-61.9 l 7.1,39.4 c -104.7,18.8 -209.4,39.3 -314.2,61.6 l -8.3,-39.1 m 632.5,-114.1 c 106.4,-15.9 212.5,-30.3 318.5,-43.4 l 4.9,39.7 c -105.7,13.1 -211.5,27.4 -317.4,43.3 l -6,-39.6 m 637.9,-79.1 c 106.9,-10.8 213.6,-20.4 320,-29.1 l 3.2,39.9 c -106.1,8.7 -212.5,18.3 -319.2,29 l -4,-39.8 m 640.4,-52.6 c 107.3,-7.1 214.2,-13.4 320.7,-19.2 l 2.1,40 c -106.3,5.7 -213.1,12.1 -320.2,19.1 l -2.6,-39.9 m 641.4,-35.2 c 107.5,-5 214.5,-9.7 320.8,-14.2 l 1.7,39.9 c -106.3,4.6 -213.2,9.3 -320.6,14.2 l -1.9,-39.9 m 641.5,-27.9 c 107.6,-4.7 214.5,-9.5 320.6,-14.7 l 2,40 c -106.3,5.2 -213.2,10 -320.8,14.6 l -1.8,-39.9 v 0 m 640.9,-31.9 c 107.6,-6.3 214.2,-13.4 320,-21.4 l 3,39.9 c -106,8 -212.9,15.1 -320.6,21.5 l -2.4,-40 m 639.3,-48.8 c 107.2,-10.5 213.3,-22.2 318.2,-35.6 l 5.1,39.7 c -105.4,13.4 -211.9,25.2 -319.5,35.7 l -3.8,-39.8 m 634.9,-81.5 c 106.1,-17.4 210.9,-36.8 314.3,-58.6 l 8.2,39.1 c -104,21.9 -209.3,41.5 -316,59 l -6.5,-39.5 m 625,-132.6 c 103.4,-27.6 205.3,-58.1 305.4,-91.8 l 12.8,37.9 c -101,34 -203.7,64.7 -307.9,92.6 l -10.3,-38.7 v 0 m 604.3,-204.2 c 97.8,-40.9 193.7,-85.5 287.7,-134.1 l 18.4,35.6 c -95,49 -191.9,94.1 -290.7,135.4 l -15.4,-36.9 m 563.6,-291.9 c 88.9,-56.1 175.8,-116.4 260.7,-181.4 l 24.4,31.8 c -85.9,65.7 -173.8,126.7 -263.7,183.5 l -21.4,-33.9 v 0 m 503.9,-385.6 c 76.7,-70.4 151.4,-145.3 224.2,-225 l 29.5,27 c -73.5,80.5 -149.1,156.2 -226.6,227.5 l -27.1,-29.5 v 0 m 428.5,-468.3 c 63.4,-82.1 125,-168.4 184.9,-259.2 l 33.4,22 c -60.4,91.6 -122.6,178.8 -186.6,261.6 l -31.7,-24.4 v 0 m 351.1,-531.7 c 3.9,-7 7.8,-13.9 11.7,-20.9 51.5,-92.1 97.8,-187.8 138.4,-286.6 l 36.9,15.2 c -41.1,100.2 -88.1,197.5 -140.3,291 -4,7 -7.9,14 -11.8,20.9 l -34.9,-19.6"
         style="fill:#e4e4e4;fill-opacity:1;fill-rule:nonzero;stroke:none"
         id="path16" /><path
         d="M 27054,1985.6 H 3613.2 c 733.6,5420 5700.81,9612.4 11720.4,9612.4 6019.2,0 10986.8,-4192.4 11720.4,-9612.4"
         style="fill:#f6f5f5;fill-opacity:1;fill-rule:nonzero;stroke:none"
         id="path18" /><path
         d="m 23998.5,2033.2 h -8816.8 c -410.5,0 -743.3,332.8 -743.3,743.3 v 12647 c 0,410.5 332.8,743.3 743.3,743.3 h 8816.8 c 410.4,0 743.2,-332.8 743.2,-743.3 v -12647 c 0,-410.5 -332.8,-743.3 -743.2,-743.3"
         style="fill:#a9bae6;fill-opacity:1;fill-rule:nonzero;stroke:none"
         id="path20" /><path
         d="M 23850,15597.2 V 3278.4 H 15369.6 V 15597.2 H 23850"
         style="fill:#f6f5f5;fill-opacity:1;fill-rule:nonzero;stroke:none"
         id="path22" /><path
         d="m 23850,15597.1 c 2.6,-4803.6 157.7,-10597.1 -381.9,-11879.8 -2376.6,-231.6 -5159.5,-305.9 -8098.6,-319.7 l 1117.2,12162.4 7363.3,37.1"
         style="fill:#e4e4e4;fill-opacity:1;fill-rule:nonzero;stroke:none"
         id="path24" /><path
         d="M 23088.3,4105.5 C 19383.9,3512.6 16908,3481.3 14900,3630.4 c 260.3,2770.1 364.6,7371.8 469.5,11966.2 l 4463.9,-9.9 4040,-266.7 c 58.8,-4768.5 65.3,-9173.2 -785.1,-11214.5"
         style="fill:#ffffff;fill-opacity:1;fill-rule:nonzero;stroke:none"
         id="path26" /><path
         d="m 21763.4,13676.6 -4461.2,105 16,679.5 4461.2,-105 -16,-679.5"
         style="fill:#708cd5;fill-opacity:1;fill-rule:nonzero;stroke:none"
         id="path28" /><path
         d="m 22639.4,12693.3 -4024,94.7 -7.3,-311.1 4024,-94.7 7.3,311.1"
         style="fill:#708cd5;fill-opacity:1;fill-rule:nonzero;stroke:none"
         id="path30" /><path
         d="m 21334.6,12045.4 -2735.1,64.4 -7.4,-311 2735.2,-64.4 7.3,311"
         style="fill:#d3dfff;fill-opacity:1;fill-rule:nonzero;stroke:none"
         id="path32" /><path
         d="m 17325,11846.9 -952.6,22.4 22.4,952.6 952.7,-22.4 -22.5,-952.6"
         style="fill:#ffffff;fill-opacity:1;fill-rule:nonzero;stroke:none"
         id="path34" /><path
         d="m 17325,11846.9 0.8,30 -922.7,21.7 21,892.6 892.7,-21 -21.7,-922.6 29.9,-0.7 0.8,30 -0.8,-30 30,-0.7 23.2,982.6 -1012.6,23.8 -23.9,-1012.6 1012.6,-23.8 0.7,30 -30,0.7"
         style="fill:#708cd5;fill-opacity:1;fill-rule:nonzero;stroke:none"
         id="path36" /><path
         d="m 16550.1,12571.3 c 29.4,-112.6 83.7,-584.3 319.9,-452.4 54.5,30.4 100.6,110.8 141.4,157.1 73.2,83.1 146.4,166.3 219.7,249.4 146.5,166.3 293,332.7 439.4,499 37.6,42.6 -128.2,149.5 -175.3,96 -130.2,-147.8 -260.4,-295.7 -390.6,-443.5 -65.1,-73.9 -130.2,-147.8 -195.4,-221.8 -45.1,-51.3 -149.6,-216.7 -216.7,-231.4 36.5,-11.8 73,-23.5 109.4,-35.3 25.8,-21.1 -22.1,128.7 -23.1,132.8 -18.2,69.5 -36.4,139.1 -54.6,208.7 -15,57.4 -196.3,126.5 -174.1,41.4"
         style="fill:#ee6f57;fill-opacity:1;fill-rule:nonzero;stroke:none"
         id="path38" /><path
         d="m 21888.3,10978.1 -3313.6,78 -7.3,-311.1 3313.6,-78 7.3,311.1"
         style="fill:#708cd5;fill-opacity:1;fill-rule:nonzero;stroke:none"
         id="path40" /><path
         d="m 22582.7,10283.2 -4024,94.7 -7.3,-311.1 4024,-94.7 7.3,311.1"
         style="fill:#d3dfff;fill-opacity:1;fill-rule:nonzero;stroke:none"
         id="path42" /><path
         d="m 17284.3,10115 -952.6,22.4 22.4,952.6 952.6,-22.4 -22.4,-952.6"
         style="fill:#ffffff;fill-opacity:1;fill-rule:nonzero;stroke:none"
         id="path44" /><path
         d="m 17284.3,10115 0.7,30 -922.6,21.7 21,892.6 892.6,-21 -21.7,-922.6 30,-0.7 0.7,30 -0.7,-30 30,-0.7 23.1,982.6 -1012.6,23.8 -23.8,-1012.6 1012.6,-23.8 0.7,30 -30,0.7"
         style="fill:#708cd5;fill-opacity:1;fill-rule:nonzero;stroke:none"
         id="path46" /><path
         d="m 16508.7,10812.5 c 29.4,-112.6 83.7,-584.3 319.9,-452.4 54.5,30.4 100.6,110.8 141.4,157.1 73.2,83.1 146.5,166.3 219.7,249.4 146.5,166.4 293,332.7 439.5,499 37.5,42.6 -128.3,149.5 -175.4,96 -130.2,-147.8 -260.4,-295.7 -390.6,-443.5 -65.1,-73.9 -130.2,-147.8 -195.3,-221.7 -45.2,-51.3 -149.7,-216.8 -216.7,-231.5 36.4,-11.7 72.9,-23.5 109.3,-35.3 25.8,-21.1 -22.1,128.7 -23.1,132.8 -18.2,69.5 -36.4,139.1 -54.5,208.7 -15.1,57.4 -196.4,126.5 -174.2,41.4"
         style="fill:#ee6f57;fill-opacity:1;fill-rule:nonzero;stroke:none"
         id="path48" /><path
         d="m 22557.9,9229.4 -4024,94.7 -7.3,-311 4024,-94.7 7.3,311"
         style="fill:#708cd5;fill-opacity:1;fill-rule:nonzero;stroke:none"
         id="path50" /><path
         d="m 20317.5,8603.6 -1799.6,42.4 -7.3,-311.1 1799.6,-42.3 7.3,311"
         style="fill:#d3dfff;fill-opacity:1;fill-rule:nonzero;stroke:none"
         id="path52" /><path
         d="m 17243.5,8383.1 -952.6,22.4 22.4,952.6 952.6,-22.4 -22.4,-952.6"
         style="fill:#ffffff;fill-opacity:1;fill-rule:nonzero;stroke:none"
         id="path54" /><path
         d="m 17243.5,8383.1 0.7,29.9 -922.6,21.8 21,892.6 892.6,-21 -21.7,-922.6 30,-0.7 0.7,29.9 -0.7,-29.9 30,-0.7 23.1,982.6 -1012.6,23.8 -23.8,-1012.6 1012.6,-23.8 0.7,30 -30,0.7"
         style="fill:#708cd5;fill-opacity:1;fill-rule:nonzero;stroke:none"
         id="path56" /><path
         d="m 16480.9,9068.3 c 29.4,-112.6 83.7,-584.3 319.9,-452.4 54.5,30.4 100.6,110.8 141.3,157.1 73.3,83.1 146.5,166.3 219.8,249.4 146.4,166.3 292.9,332.7 439.4,499 37.5,42.6 -128.2,149.5 -175.3,96 -130.2,-147.8 -260.5,-295.7 -390.7,-443.5 -65.1,-73.9 -130.2,-147.8 -195.3,-221.8 -45.2,-51.3 -149.6,-216.7 -216.7,-231.4 36.5,-11.8 72.9,-23.5 109.4,-35.3 25.7,-21.1 -22.1,128.7 -23.2,132.8 -18.1,69.5 -36.3,139.1 -54.5,208.7 -15,57.4 -196.4,126.5 -174.1,41.4"
         style="fill:#ee6f57;fill-opacity:1;fill-rule:nonzero;stroke:none"
         id="path58" /><path
         d="m 22517.1,7497.5 -4023.9,94.7 -7.4,-311 4024,-94.7 7.3,311"
         style="fill:#708cd5;fill-opacity:1;fill-rule:nonzero;stroke:none"
         id="path60" /><path
         d="m 21656,6839.2 -3178.8,74.9 -7.3,-311.1 3178.8,-74.8 7.3,311"
         style="fill:#d3dfff;fill-opacity:1;fill-rule:nonzero;stroke:none"
         id="path62" /><path
         d="m 17202.8,6651.1 -952.7,22.5 22.5,952.6 952.6,-22.4 -22.4,-952.7"
         style="fill:#ffffff;fill-opacity:1;fill-rule:nonzero;stroke:none"
         id="path64" /><path
         d="m 17202.8,6651.1 0.7,30 -922.7,21.8 21.1,892.6 892.6,-21 -21.7,-922.7 30,-0.7 0.7,30 -0.7,-30 30,-0.7 23.1,982.7 -1012.6,23.8 -23.9,-1012.6 1012.7,-23.9 0.7,30 -30,0.7"
         style="fill:#708cd5;fill-opacity:1;fill-rule:nonzero;stroke:none"
         id="path66" /><path
         d="m 16440.4,7347.7 c 29.4,-112.6 83.7,-584.2 319.9,-452.3 54.5,30.4 100.6,110.8 141.3,157 73.3,83.2 146.5,166.3 219.8,249.5 146.5,166.3 292.9,332.6 439.4,498.9 37.6,42.6 -128.2,149.6 -175.3,96 -130.2,-147.8 -260.5,-295.6 -390.7,-443.5 -65.1,-73.9 -130.2,-147.8 -195.3,-221.7 -45.2,-51.3 -149.6,-216.8 -216.7,-231.4 36.5,-11.8 72.9,-23.6 109.4,-35.3 25.7,-21.2 -22.1,128.6 -23.2,132.7 -18.1,69.6 -36.3,139.1 -54.5,208.7 -15,57.5 -196.4,126.6 -174.1,41.4"
         style="fill:#ee6f57;fill-opacity:1;fill-rule:nonzero;stroke:none"
         id="path68" /><path
         d="m 20047.8,5835.9 -1595.1,37.5 -7.3,-311 1595.1,-37.6 7.3,311.1"
         style="fill:#708cd5;fill-opacity:1;fill-rule:nonzero;stroke:none"
         id="path70" /><path
         d="m 22460.7,5100.5 -4024,94.7 -7.3,-311 c 1556.9,-36.5 3539.1,-109.5 3943.6,-47.4 61.4,69.8 94.5,155.5 87.7,263.7"
         style="fill:#d3dfff;fill-opacity:1;fill-rule:nonzero;stroke:none"
         id="path72" /><path
         d="m 17175.6,4932 -952.6,22.4 22.4,952.7 952.7,-22.5 -22.5,-952.6"
         style="fill:#ffffff;fill-opacity:1;fill-rule:nonzero;stroke:none"
         id="path74" /><path
         d="m 17175.6,4932 0.7,30 -922.6,21.7 21,892.7 892.7,-21 -21.8,-922.7 30,-0.7 0.7,30 -0.7,-30 30,-0.7 23.2,982.6 -1012.6,23.9 -23.9,-1012.6 1012.6,-23.9 0.7,30 -30,0.7"
         style="fill:#708cd5;fill-opacity:1;fill-rule:nonzero;stroke:none"
         id="path76" /><path
         d="m 16400.3,5642.2 c 29.4,-112.6 83.7,-584.2 319.9,-452.3 54.4,30.4 100.6,110.8 141.3,157 73.2,83.2 146.5,166.4 219.7,249.5 146.5,166.3 293,332.6 439.5,498.9 37.5,42.7 -128.2,149.6 -175.4,96.1 -130.2,-147.9 -260.4,-295.7 -390.6,-443.5 -65.1,-74 -130.2,-147.9 -195.3,-221.8 -45.2,-51.3 -149.7,-216.7 -216.7,-231.4 36.5,-11.8 72.9,-23.6 109.4,-35.3 25.7,-21.2 -22.1,128.7 -23.2,132.7 -18.2,69.6 -36.4,139.2 -54.5,208.7 -15,57.5 -196.4,126.6 -174.1,41.4"
         style="fill:#ee6f57;fill-opacity:1;fill-rule:nonzero;stroke:none"
         id="path78" /><path
         d="m 21500,16081.2 v -950.8 h -3820 v 950.8 c 0,151.6 61.6,288.8 160.8,388.4 12.4,12.4 25.2,24 38.8,34.8 94.8,78.8 216.8,126 349.6,126 99.6,0 195.2,22.8 280.8,64 37.2,18 72.4,39.2 105.6,63.6 109.2,80.8 192.8,195.6 234.4,332.4 42.4,139.6 129.2,256.4 241.6,337.6 108,77.6 239.6,122.4 379.2,122.4 h 238.4 c 139.6,0 271.2,-44.8 379.2,-122.4 112.4,-81.2 199.2,-198 241.6,-337.6 41.6,-136.8 125.2,-251.6 234.4,-332.4 33.2,-24.4 68.4,-45.6 105.6,-63.6 85.6,-41.2 181.2,-64 280.8,-64 132.8,0 254.8,-47.2 349.6,-126 122,-100.4 199.6,-252.8 199.6,-423.2"
         style="fill:#ee6f57;fill-opacity:1;fill-rule:nonzero;stroke:none"
         id="path80" /><path
         d="m 21810,15597.2 v -706.8 h -4440 v 706.8 h 310 v -466.8 h 3820 v 466.8 h 310"
         style="fill:#e4e4e4;fill-opacity:1;fill-rule:nonzero;stroke:none"
         id="path82" /><path
         d="m 19928.9,16980.5 c 0,-177.9 -151.7,-322.1 -338.8,-322.1 -187.2,0 -338.9,144.2 -338.9,322.1 0,177.8 151.7,322 338.9,322 187.1,0 338.8,-144.2 338.8,-322"
         style="fill:#ffffff;fill-opacity:1;fill-rule:nonzero;stroke:none"
         id="path84" /><path
         d="m 12269.2,12529.1 c -135.5,25.7 -262.1,252 -306.1,338.8 -10.8,21.3 -14.2,45.4 -9.8,68.9 l 54,285.8 c 0,0 124.4,-21.1 114.8,-186.8 -1,-17.2 2.5,-34.4 8.6,-50.5 l 47.7,-124.6 140.8,109 -77.2,218.1 c 0,0 -103.4,-28.4 -156.8,-11.4 -109.5,35 34.1,120.4 79.5,129.5 45.5,9.1 145.4,45.4 190.8,-31.8 45.5,-77.2 72.7,-122.7 72.7,-122.7 0,0 50,172.7 15.9,558.8 -1.5,17.4 42,17 54.2,4.5 36.6,-37.2 94.9,-150.5 98,-495.1 0,0 6.1,401.6 74.9,442.9 56.8,34.1 85.5,-162.5 45.5,-495.8 0,0 74.1,288.6 127.2,289.1 89.5,0.9 1.1,-770.8 -223.9,-1000.8 l -350.8,74.1"
         style="fill:#f9b384;fill-opacity:1;fill-rule:nonzero;stroke:none"
         id="path86" /><path
         d="m 12694,12647.2 c -4,-38.4 -8.4,-75.6 -13.2,-111.6 v -0.4 c -16,-128 -36,-242.4 -59.2,-340.4 -1.2,-4.8 -2,-9.2 -3.2,-13.6 -68.4,-280.4 -80.8,-417.6 -314.4,-380.8 l -240.4,273.6 -2.4,2.8 -17.6,20 48.8,144 6.4,18.8 36,104.8 4.4,13.6 61.6,180.4 24.8,73.2 468.4,15.6"
         style="fill:#f9b384;fill-opacity:1;fill-rule:nonzero;stroke:none"
         id="path88" /><path
         d="m 8227.9,2684.6 -61.21,-191.3 c -419.58,-137.8 -664.31,-295.7 -680,-480 h 1213.34 l 97.26,640.4 c -245.74,-60 -442.66,-18.3 -569.39,30.9"
         style="fill:#1f3c88;fill-opacity:1;fill-rule:nonzero;stroke:none"
         id="path90" /><path
         d="M 8380.03,3160 8227.9,2684.6 c 126.73,-49.2 323.65,-90.9 569.39,-30.9 l 62.74,413 -480,93.3"
         style="fill:#f9b384;fill-opacity:1;fill-rule:nonzero;stroke:none"
         id="path92" /><path
         d="m 10454.4,2705.8 35.6,484.2 -569.97,-30 -31.14,-446.4 c 241.31,-76.9 440.81,-46.8 565.51,-7.8"
         style="fill:#f9b384;fill-opacity:1;fill-rule:nonzero;stroke:none"
         id="path94" /><path
         d="m 11140,2013.3 c -15.7,184.3 -230,436.7 -700,496.7 l 14.4,195.8 c -124.7,-39 -324.2,-69.1 -565.51,7.8 l -48.86,-700.3 H 11140"
         style="fill:#1f3c88;fill-opacity:1;fill-rule:nonzero;stroke:none"
         id="path96" /><path
         d="m 9992.42,12404.8 -687.59,-4.8 v 1040 h 666.8 l 0.4,-63.6 3.2,-329.6 4.8,-529.2 12.39,-112.8"
         style="fill:#f9b384;fill-opacity:1;fill-rule:nonzero;stroke:none"
         id="path98" /><path
         d="m 9975.23,12996.8 c -123.6,-130 -446,16.8 -582,160 l 578.8,169.6 3.2,-329.6"
         style="fill:#e28b6d;fill-opacity:1;fill-rule:nonzero;stroke:none"
         id="path100" /><path
         d="m 10134.8,13680 c -0.4,-76.8 -5.2,-157.2 -18,-234 -33.6,-209.6 -122.37,-390.8 -327.17,-396.4 -484,-14 -622.01,262.8 -713.2,489.2 -91.2,226.8 56.8,772 56.8,772 l 626.4,62 343.97,-282 c 0,0 33.2,-191.6 31.2,-410.8"
         style="fill:#f9b384;fill-opacity:1;fill-rule:nonzero;stroke:none"
         id="path102" /><path
         d="m 9095.94,13668.5 c 0,0 138.08,6.3 161.68,362.7 246.91,-82.6 427.34,-7.3 570.3,157.2 121.98,-161.1 463.48,-211.6 578.78,118.3 83.3,238.3 -146.7,593.3 -481.67,378.3 -328.31,165.9 -826.28,154.5 -969.58,-252.4 0,0 -498.17,-229.7 29.31,-735.4 10.58,-10.1 111.18,-28.7 111.18,-28.7"
         style="fill:#102048;fill-opacity:1;fill-rule:nonzero;stroke:none"
         id="path104" /><path
         d="M 11000.1,8667 10620,2920 h -893.31 l 223.34,5576.7 136.67,63.3 913.4,107"
         style="fill:#102048;fill-opacity:1;fill-rule:nonzero;stroke:none"
         id="path106" /><path
         d="M 8673.36,9453.3 8046.69,2920 h 973.34 l 926.66,5426.7 1053.31,320 46.7,1160 -2346.67,53.3 -26.67,-426.7"
         style="fill:#1f3c88;fill-opacity:1;fill-rule:nonzero;stroke:none"
         id="path108" /><path
         d="m 10801,9832.3 h -0.5 l -0.5,2 1,-2"
         style="fill:#6c758d;fill-opacity:1;fill-rule:nonzero;stroke:none"
         id="path110" /><path
         d="m 9423.89,9367.6 c 12.68,58.5 24.48,116.9 35.41,174.9 11.3,-0.1 22.57,-0.2 33.84,-0.2 48.24,0 96.32,1.3 144.09,3.7 v 0 c 152.8,7.2 302.8,26.4 446.77,54.8 v 0 c 241.2,46.8 467.6,117.6 666.4,198.4 v 0 0 c 18,6.8 35.6,14.4 52.8,21.6 l -2.7,11.5 h 0.5 l 50,-100.2 c -182.9,-187.7 -858.57,-351.6 -1427.11,-364.5"
         style="fill:#162b62;fill-opacity:1;fill-rule:nonzero;stroke:none"
         id="path112" /><path
         d="m 10803.2,9820.8 c -17.2,-7.2 -34.8,-14.8 -52.8,-21.6 -198.8,-80.8 -425.2,-151.6 -666.4,-198.4 -143.97,-28.4 -293.97,-47.6 -446.77,-54.8 -230.41,-11.6 -467.2,3.6 -701.6,56.8 l 297.99,2778.4 36.41,338.8 c 0,0 390,-480 819.97,50 l 713.2,-2949.2"
         style="fill:#ffffff;fill-opacity:1;fill-rule:nonzero;stroke:none"
         id="path114" /><path
         d="m 9493.14,9542.3 c -11.27,0 -22.54,0.1 -33.84,0.2 185.79,987.2 123.08,1911.4 -51.46,2810.6 237.67,-697.9 443.94,-1953.3 229.39,-2807.1 v 0 c -47.77,-2.4 -95.85,-3.7 -144.09,-3.7"
         style="fill:#bbc4db;fill-opacity:1;fill-rule:nonzero;stroke:none"
         id="path116" /><path
         d="m 9305.03,12830 c 296.29,-1258 418.2,-2552.5 -18.34,-3990 -323.72,-123.1 -676.18,-121.7 -1053.33,-13.3 l 93.33,2613.3 -2196.66,-1510 -133.33,823.3 c 844.41,807.5 2304.39,2027.2 3308.33,2076.7"
         style="fill:#708cd5;fill-opacity:1;fill-rule:nonzero;stroke:none"
         id="path118" /><path
         d="m 10084,9600.8 c -132.37,759.2 -161.57,2006.4 -54,2569.2 l 720.4,-2370.8 c -198.8,-80.8 -425.2,-151.6 -666.4,-198.4 v 0"
         style="fill:#bbc4db;fill-opacity:1;fill-rule:nonzero;stroke:none"
         id="path120" /><path
         d="m 12371.6,11794.5 c -20.2,0 -42.6,2 -67.6,5.9 l -240.4,273.6 -2.4,2.8 31.2,164 6.4,18.8 36,104.8 4.4,13.6 482.4,-183.2 c -1.2,-4.8 -2,-9.2 -3.2,-13.6 -61.1,-250.4 -77.5,-386.7 -246.8,-386.7"
         style="fill:#eb9b76;fill-opacity:1;fill-rule:nonzero;stroke:none"
         id="path122" /><path
         d="m 12580,11940 c 0,0 -590,-1250 -940,-1280 -339.3,-29.1 -500,300 -500,300 l 240,-1826.8 c -282,-132 -589.6,-196.4 -946.8,-133.2 -317.2,1030 -437.07,2361.8 -460.67,3845 256.77,-16 765.37,-37.9 947.47,-155 326.7,-210 730,-960 730,-960 l 470,640 460,-430"
         style="fill:#708cd5;fill-opacity:1;fill-rule:nonzero;stroke:none"
         id="path124" /><path
         d="m 5387.44,13701.3 c 0,0 35.71,597.9 96.57,569.7 60.86,-28.2 182.91,-548.1 182.91,-548.1 l -130.51,-210.7 -148.97,189.1"
         style="fill:#6f3428;fill-opacity:1;fill-rule:nonzero;stroke:none"
         id="path126" /><path
         d="m 7183,2903.3 17.68,-196.8 c 31.21,-347.4 -225.14,-654.4 -572.55,-685.6 l -50.59,-4.5 c -347.4,-31.2 -654.38,225.1 -685.59,572.5 l -17.68,196.8 1308.73,117.6"
         style="fill:#ee6f57;fill-opacity:1;fill-rule:nonzero;stroke:none"
         id="path128" /><path
         d="m 6326.83,12432.9 856.18,-9529.6 -1308.74,-117.6 -856.17,9529.7 1308.73,117.5"
         style="fill:#fbc343;fill-opacity:1;fill-rule:nonzero;stroke:none"
         id="path130" /><path
         d="m 5400.11,12349.7 -20.75,230.9 544.47,48.9 20.75,-230.9 -79.68,-7.2 -13.59,151.3 -385.11,-34.6 13.59,-151.3 -79.68,-7.1"
         style="fill:#d4c2be;fill-opacity:1;fill-rule:nonzero;stroke:none"
         id="path132" /><path
         d="m 6136.98,4147.9 -736.87,8201.8 79.68,7.1 729.72,-8122 385.11,34.6 -729.72,8122 79.68,7.2 733.3,-8161.9 -39.84,-3.6 39.84,3.6 3.58,-39.9 -544.48,-48.9"
         style="fill:#d1983b;fill-opacity:1;fill-rule:nonzero;stroke:none"
         id="path134" /><path
         d="m 7182.83,2903.2 -1308.4,-117.6 -34.4,384 -24,266.8 -74,820 1308.8,117.6 73.6,-820 24,-266.8 34.4,-384"
         style="fill:#102048;fill-opacity:1;fill-rule:nonzero;stroke:none"
         id="path136" /><path
         d="m 7148.43,3287.2 -1308.4,-117.6 -24,266.8 1308.4,117.6 24,-266.8"
         style="fill:#fbc343;fill-opacity:1;fill-rule:nonzero;stroke:none"
         id="path138" /><path
         d="m 5017.93,12315.3 363.53,1457 c 0,0 125.48,-55.7 277.68,38.3 l 667.62,-1377.7 -1308.83,-117.6"
         style="fill:#ee6f57;fill-opacity:1;fill-rule:nonzero;stroke:none"
         id="path140" /><path
         d="m 9168.35,13728.8 c -5.86,21.5 -103.53,51 -125.05,56.9 -33.25,9.2 -69.55,13.7 -102,-0.9 -118.12,-53.4 -102.33,-222.5 -41.14,-311.4 34.67,-50.3 85.42,-89.1 144.45,-106 21.45,-6.1 224.63,-8.6 215.72,24.1 l -91.98,337.3"
         style="fill:#f9b384;fill-opacity:1;fill-rule:nonzero;stroke:none"
         id="path142" /><path
         d="m 5450.03,10330 c -30.7,96.4 -131.69,150.4 -227.27,117.4 -148.89,-51.4 -278.56,-138.6 -298.65,-287 -18.28,-135.1 49.29,-566.6 351.1,-622.1 l -24.64,221.8 c 0,0 184.79,43.1 221.75,123.2 25.86,56 27.59,290.1 -22.29,446.7"
         style="fill:#f9b384;fill-opacity:1;fill-rule:nonzero;stroke:none"
         id="path144" /><path
         d="m 11047.8,11814.2 c 15.9,-94.4 29.4,-189.1 42.3,-283.9 13.5,-94.7 24.1,-189.8 36.3,-284.7 l 31,-285.2 c 9,-95.3 17.9,-190.5 23.7,-286.2 l -15.5,-1.8 c -16.4,94.4 -29.7,189.2 -42.9,283.9 l -35.7,284.7 c -10,95.2 -21.6,190.1 -30.4,285.4 -9.3,95.2 -18,190.5 -24.3,286 l 15.5,1.8"
         style="fill:#1f3c88;fill-opacity:1;fill-rule:nonzero;stroke:none"
         id="path146" /><path
         d="m 8357.84,11829.6 c -0.22,-106 -2.81,-212 -5.95,-317.9 -2.68,-105.9 -8.14,-211.8 -12.07,-317.6 l -17.34,-317.4 c -7.08,-105.8 -14.36,-211.5 -24.64,-317.1 l -15.62,0.8 c -0.29,106 2.44,212 5.35,317.9 l 12.66,317.6 c 6.07,105.8 10.61,211.7 17.93,317.4 6.86,105.7 14.27,211.5 24.06,317.1 l 15.62,-0.8"
         style="fill:#1f3c88;fill-opacity:1;fill-rule:nonzero;stroke:none"
         id="path148" /><path
         d="m 9653.79,13738.7 c 8.45,-37.7 -7.09,-73.3 -34.71,-79.5 -27.62,-6.2 -56.86,19.4 -65.31,57.1 -8.46,37.7 7.08,73.3 34.7,79.5 27.62,6.2 56.86,-19.4 65.32,-57.1"
         style="fill:#102048;fill-opacity:1;fill-rule:nonzero;stroke:none"
         id="path150" /><path
         d="m 10052.5,13785.3 c -1.7,-38.6 -25.9,-68.9 -54.18,-67.7 -28.29,1.2 -49.88,33.4 -48.25,72.1 1.64,38.6 25.89,68.9 54.13,67.7 28.3,-1.2 49.9,-33.4 48.3,-72.1"
         style="fill:#102048;fill-opacity:1;fill-rule:nonzero;stroke:none"
         id="path152" /><path
         d="m 9830.17,13753.7 c 13.71,-33.1 11.54,-68.7 20.4,-95.8 4.51,-13.7 10.74,-25.8 19.37,-33.3 8.02,-7.3 21.03,-12 37.53,-18.4 17,-6.6 35.06,-18.3 47.4,-35.8 13.08,-16.9 16.68,-46.2 4.84,-65.4 -10.64,-19.2 -25.94,-29.8 -39.08,-39.5 -13.73,-9.3 -26.93,-19.1 -41.19,-27.8 l -10.27,11.8 c 10.49,12.9 22.04,24.7 33.06,37 11.37,11.8 21.81,23.2 25.83,33.7 8.47,18.5 -9.66,38.8 -35.92,49.2 -13.52,6.2 -33.02,11.6 -48.75,27.7 -15.17,15.5 -22.67,34.8 -25.67,52.9 -6.61,37.1 0.95,68.8 -2.64,99.6 l 15.09,4.1"
         style="fill:#e28b6d;fill-opacity:1;fill-rule:nonzero;stroke:none"
         id="path154" /><path
         d="m 9462.94,13840 c 5.9,23.7 20.36,46.2 40.83,62.3 20.14,16.8 46.44,25.8 72.51,27.2 52.53,3.2 104.53,-26.7 126.12,-70.9 l -12.25,-9.7 c -34.73,27.3 -72.98,42.2 -111.95,40.8 -39.08,-1 -74.56,-21.1 -101.09,-56.3 l -14.17,6.6"
         style="fill:#102048;fill-opacity:1;fill-rule:nonzero;stroke:none"
         id="path156" /><path
         d="m 9875.79,13889 c 5.9,18.5 16.31,36.1 31.4,50.5 14.76,14.8 35.36,24.6 56.77,28.1 42.94,7.1 89.14,-14.7 106.04,-52.9 l -12.5,-9.4 c -28.1,18.9 -58.74,26.9 -87.66,22.9 -14.47,-1.9 -28.21,-7.3 -41.78,-15.3 -13.34,-8.3 -25.5,-19.6 -38.8,-31.9 l -13.47,8"
         style="fill:#102048;fill-opacity:1;fill-rule:nonzero;stroke:none"
         id="path158" /><path
         d="m 9654.52,13366.3 c 69.84,-109.3 162.9,-121.2 234.77,-6.2 l -234.77,6.2"
         style="fill:#ffffff;fill-opacity:1;fill-rule:nonzero;stroke:none"
         id="path160" /><path
         d="m 10116.8,13446 v 0 0 c 0.1,0.4 0.2,0.8 0.2,1.2 0,-0.4 -0.1,-0.8 -0.2,-1.2 m 14.4,127.2 c 2.3,35.9 3.4,71.7 3.6,106.8 0.1,8.8 0.1,17.6 0.1,26.4 0.6,0.1 1.2,0.2 1.8,0.3 -0.2,-39.3 -2.1,-86.5 -5.5,-133.5"
         style="fill:#fecfc9;fill-opacity:1;fill-rule:nonzero;stroke:none"
         id="path162" /><path
         d="m 10116.8,13446 c -48.4,15.6 -83.6,60.8 -83.6,114.8 0,59.8 45.3,135.1 101.7,145.6 0,-8.8 0,-17.6 -0.1,-26.4 -0.2,-35.1 -1.3,-70.9 -3.6,-106.8 -3.3,-44.5 -8,-88.7 -14.2,-126 0,-0.4 -0.1,-0.8 -0.2,-1.2 v 0"
         style="fill:#faa280;fill-opacity:1;fill-rule:nonzero;stroke:none"
         id="path164" /><path
         d="m 9484.02,13360.4 c -71.24,0 -128.99,57.7 -128.99,128.9 0,71.3 57.75,129 128.99,129 71.24,0 129,-57.7 129,-129 0,-71.2 -57.76,-128.9 -129,-128.9"
         style="fill:#faa280;fill-opacity:1;fill-rule:nonzero;stroke:none"
         id="path166" /><path
         d="m 9083.8,13600.3 c -25.48,17.3 -48.86,36.2 -72.12,47.5 -11.53,5.6 -22.25,9 -31.82,8.2 -9.65,-0.7 -20.77,-6.3 -33.27,-15.2 l -13.13,8.5 c 5.45,15.9 16.93,33.8 38,40.8 20.94,7.3 42.17,1.4 57.88,-6.7 31.85,-17.4 53.65,-43 66.91,-73.7 l -12.45,-9.4"
         style="fill:#e28b6d;fill-opacity:1;fill-rule:nonzero;stroke:none"
         id="path168" /><path
         d="m 5286.67,9319.2 -18.57,213.5 19.05,-212.1 -0.48,-1.4"
         style="fill:#a9857e;fill-opacity:1;fill-rule:nonzero;stroke:none"
         id="path170" /><path
         d="m 5287.15,9320.6 -19.05,212.1 -0.62,7.1 c 2.56,-0.5 5.13,-1 7.73,-1.5 l -24.64,221.8 c 0,0 6.49,1.5 17.28,4.5 30.73,7.7 57.47,17 81.04,27.6 50.46,20.8 105.11,51.4 123.43,91.1 v 0 l -185.17,-562.7"
         style="fill:#a76d33;fill-opacity:1;fill-rule:nonzero;stroke:none"
         id="path172" /><path
         d="m 5275.21,9538.3 c -2.6,0.5 -5.17,1 -7.73,1.5 l -19.14,220.2 c 6.67,1.5 13.18,3 19.51,4.6 -10.79,-3 -17.28,-4.5 -17.28,-4.5 l 24.64,-221.8 m 73.68,253.9 c 55.49,24.9 93.26,56.7 123.43,91.1 -18.32,-39.7 -72.97,-70.3 -123.43,-91.1"
         style="fill:#a6674d;fill-opacity:1;fill-rule:nonzero;stroke:none"
         id="path174" /><path
         d="m 2404.25,1969.7 h 25858.8 v 80 H 2404.25 Z"
         style="fill:#102048;fill-opacity:1;fill-rule:nonzero;stroke:none"
         id="path176" /></g></g></svg>
